<svg xmlns="http://www.w3.org/2000/svg" width="112.676" height="125.353" fill="#3c3c3b" xmlns:v="https://vecta.io/nano"><path d="M100.182 17.428l-2.204-4.839-.752-1.652v-.002L110.5 4.217l-10.318 13.211h0zm-6.184-2.651l.111-.134 2.832-3.445.573 1.26-3.516 2.319h0zm-.526.065l1.651-6.417 7.48-2.125 6.76-1.918-12.287 6.219-.173.087-.032.017-.004.001-.097.119-2.309 2.811-.989 1.206h0zm16.371-10.978l-14.82 4.209-4.543-4.239 19.363.03h0zm1.262-.361l-21.553-.037 5.217 4.871-1.848 7.174-.127.497.422-.277 4.453-2.937 2.431 5.334 11.157-14.284.268-.341h-.42 0zM91.368 17.137a.29.29 0 0 1-.258-.158.29.29 0 0 1 .129-.387l.31-.157a.29.29 0 0 1 .388.125c.075.142.017.316-.126.388l-.313.159c-.041.02-.084.03-.13.03h0zm-42.347.117c-.012 0-.024 0-.037-.002-.792-.103-1.509-.126-2.24-.07-.143.01-.299-.106-.312-.265a.29.29 0 0 1 .266-.31c.772-.06 1.526-.035 2.358.073a.29.29 0 0 1 .252.323.29.29 0 0 1-.287.251h0zm4.466 1.122a.27.27 0 0 1-.091-.015l-2.189-.662c-.154-.041-.247-.198-.206-.352a.29.29 0 0 1 .353-.206l2.225.672c.149.05.232.213.184.364-.043.123-.154.199-.276.199h0zm-11.116.217c-.099 0-.193-.051-.247-.142-.083-.137-.035-.314.101-.395l.891-.472c.414-.199.838-.371 1.26-.51a.29.29 0 0 1 .365.183.29.29 0 0 1-.184.365 10.14 10.14 0 0 0-1.194.482l-.845.449c-.046.028-.095.04-.147.04h0zm44.791.438c-.115 0-.222-.068-.268-.182-.06-.148.013-.315.161-.375l2.113-.896a.29.29 0 0 1 .381.144.29.29 0 0 1-.146.382l-2.134.906a.29.29 0 0 1-.107.021h0zm-29.31.838c-.03 0-.06-.005-.091-.015l-2.187-.746a.29.29 0 0 1-.18-.367.29.29 0 0 1 .369-.177l2.179.742a.29.29 0 0 1 .183.364c-.041.122-.151.199-.273.199h0zm24.949.659c-.126 0-.241-.082-.277-.208a.29.29 0 0 1 .196-.357l2.188-.691c.15-.053.313.028.364.179s-.026.314-.18.366l-2.211.7a.28.28 0 0 1-.08.011h0zm-20.517.612c-.022 0-.046-.002-.068-.008l-2.243-.591a.29.29 0 0 1-.197-.357.29.29 0 0 1 .358-.197l2.216.584c.154.037.252.192.214.347a.29.29 0 0 1-.28.222h0zm-23.415.426c-.064 0-.133-.023-.187-.07-.122-.104-.136-.286-.031-.406a15.4 15.4 0 0 1 1.658-1.662.29.29 0 0 1 .408.031.29.29 0 0 1-.031.407 14.81 14.81 0 0 0-1.599 1.599c-.057.067-.137.101-.218.101h0zm39.439.009c-.135 0-.257-.098-.281-.238-.029-.157.076-.307.232-.334l2.245-.461a.29.29 0 0 1 .346.215.29.29 0 0 1-.217.347l-2.273.466c-.016.003-.036.005-.052.005h0zm-11.485.368a.39.39 0 0 1-.033-.002l-2.298-.337a.29.29 0 0 1-.234-.334c.028-.157.181-.261.335-.234l2.264.332a.29.29 0 0 1 .253.32.29.29 0 0 1-.287.255h0zm6.908.18a.29.29 0 0 1-.288-.271.29.29 0 0 1 .27-.306l2.28-.207c.152-.019.301.093.321.251a.29.29 0 0 1-.254.321l-2.313.211-.016.001zm-2.451.076a41.24 41.24 0 0 1-1.525-.029l-.651-.031a.29.29 0 0 1-.272-.304c.009-.159.147-.275.304-.271l.643.03 1.503.029h.142c.161 0 .291.128.291.286a.29.29 0 0 1-.286.29h-.149 0zm-40.043 1.275a.29.29 0 0 1-.287-.26c-.017-.159.101-.3.258-.315l2.314-.175c.165-.007.295.114.304.273a.29.29 0 0 1-.272.303l-2.288.172c-.01.002-.021.002-.029.002h0zm11.509.209c-.015 0-.027 0-.041-.003l-2.275-.264c-.159-.014-.277-.154-.262-.313s.153-.276.313-.262l2.307.268c.157.023.266.169.243.327a.29.29 0 0 1-.285.247h0zm-16.076.449c-.136 0-.257-.096-.283-.234a.29.29 0 0 1 .229-.337l2.29-.384a.29.29 0 0 1 .327.245.29.29 0 0 1-.245.326l-2.261.38-.057.004h0zm20.591.488a.31.31 0 0 1-.078-.01l-2.223-.537c-.156-.032-.258-.184-.224-.34a.29.29 0 0 1 .34-.225l2.263.546a.29.29 0 0 1 .2.355.29.29 0 0 1-.278.211h0zm-25.073.606a.29.29 0 0 1-.275-.206c-.046-.153.041-.313.193-.359l2.241-.607a.29.29 0 0 1 .348.211.29.29 0 0 1-.212.349l-2.212.599c-.027.008-.055.013-.083.013h0zm14.183.203a.29.29 0 0 1-.123-.028c-.145-.068-.204-.24-.137-.384.291-.613.616-1.21.971-1.78l-.878-.008-.358.001a.29.29 0 0 1-.29-.286.29.29 0 0 1 .286-.291l.362-.001 1.959.039c.159.006.282.141.276.3s-.146.292-.299.276l-.39-.014c-.004.01-.01.019-.017.028a17.88 17.88 0 0 0-1.102 1.982c-.047.106-.152.166-.26.166h0zm15.202.811c-.043 0-.086-.01-.127-.03a21.65 21.65 0 0 0-2.091-.898c-.147-.056-.225-.222-.171-.372s.225-.225.371-.169a22.22 22.22 0 0 1 2.146.922c.145.071.202.244.132.387a.29.29 0 0 1-.26.16h0zm-33.72.557c-.11 0-.216-.065-.263-.173-.064-.146.002-.316.15-.38l2.16-.856c.148-.055.315.023.369.173s-.023.315-.174.369l-2.127.843c-.036.017-.075.024-.115.024h0zm37.496 2.057c-.074 0-.146-.028-.203-.084a12.1 12.1 0 0 0-1.74-1.424c-.132-.089-.165-.269-.076-.4a.29.29 0 0 1 .4-.077c.685.466 1.298.968 1.823 1.493.113.113.113.295 0 .408-.055.056-.13.084-.204.084h0zm-41.588.064c-.097 0-.192-.049-.245-.137-.084-.135-.043-.313.093-.396l2.028-1.146c.14-.072.315-.017.387.124s.019.316-.124.389l-1.989 1.124c-.047.029-.099.042-.15.042h0zm21.183.886a.33.33 0 0 1-.054-.005c-.157-.03-.26-.18-.23-.336.142-.759.337-1.522.582-2.27.05-.151.213-.235.363-.185a.29.29 0 0 1 .186.364c-.237.723-.427 1.462-.564 2.196-.025.14-.147.236-.283.236h0zm-24.872 1.874c-.078 0-.157-.032-.212-.094-.109-.118-.099-.3.018-.408l1.8-1.483c.128-.095.309-.07.404.059s.07.309-.058.403l-1.759 1.448a.28.28 0 0 1-.193.075h0zm47.627 1.093a.29.29 0 0 1-.276-.201c-.232-.738-.537-1.426-.903-2.046-.081-.137-.036-.314.103-.395.134-.08.313-.036.394.102.389.657.71 1.386.958 2.166a.29.29 0 0 1-.188.361c-.03.008-.061.013-.088.013h0zm-22.953 1.625a.29.29 0 0 1-.286-.257c-.058-.536-.087-1.086-.087-1.635l.017-.712c.007-.159.141-.282.302-.275s.281.143.273.301l-.015.686c0 .528.027 1.058.085 1.573a.29.29 0 0 1-.258.317c-.009.002-.02.002-.031.002h0zm-27.702.747c-.056 0-.111-.016-.161-.05-.132-.09-.167-.269-.078-.4.431-.632.913-1.254 1.434-1.849a.29.29 0 0 1 .408-.027c.12.105.132.288.027.407a18.39 18.39 0 0 0-1.39 1.793c-.056.081-.147.126-.24.126h0zm51.114 2.186c-.012 0-.022-.001-.035-.002a.29.29 0 0 1-.253-.319 10.01 10.01 0 0 0 .063-1.142 11.23 11.23 0 0 0-.055-1.099c-.018-.158.099-.3.257-.316.152-.014.299.099.315.258l.06 1.156c0 .408-.022.814-.066 1.208a.29.29 0 0 1-.286.256h0zm-22.139 1.485a.29.29 0 0 1-.261-.166c-.516-1.103-.78-1.96-.851-2.197a.29.29 0 0 1 .195-.358c.154-.046.313.043.358.195.066.227.321 1.05.819 2.115.068.145.007.315-.137.383-.038.02-.081.028-.123.028h0zm-31.024.444a.3.3 0 0 1-.093-.015c-.15-.051-.23-.215-.179-.366l.476-1.25.422-.916a.29.29 0 0 1 .387-.13.29.29 0 0 1 .129.387l-.408.885-.461 1.208c-.04.122-.152.197-.273.197h0zm51.536 2.332a.29.29 0 0 1-.167-.053c-.13-.092-.16-.272-.067-.402a9.04 9.04 0 0 0 1.055-1.962.29.29 0 0 1 .372-.166c.148.057.223.224.165.372-.276.723-.653 1.425-1.122 2.089-.056.08-.145.122-.236.122h0zm-18.017 1.093c-.081 0-.159-.033-.217-.098a15.16 15.16 0 0 1-1.408-1.881c-.087-.134-.045-.313.088-.398a.29.29 0 0 1 .398.087 14.88 14.88 0 0 0 1.355 1.811.29.29 0 0 1-.025.407c-.056.049-.124.072-.191.072h0zM4.072 43.767c-.008 0-.016 0-.027-.001-.158-.014-.276-.154-.261-.312a20.25 20.25 0 0 1 .332-2.315c.031-.157.181-.256.34-.226s.257.184.225.34a20.04 20.04 0 0 0-.321 2.25c-.014.151-.142.264-.288.264h0zm49.092.929c-.097 0-.191-.048-.245-.137-.082-.136-.042-.313.095-.396a11.76 11.76 0 0 0 1.798-1.35.29.29 0 0 1 .408.018.29.29 0 0 1-.019.407c-.572.524-1.207 1-1.887 1.416a.28.28 0 0 1-.15.042h0zm-11.03.798c-.043 0-.086-.009-.127-.029a11.09 11.09 0 0 1-2-1.255c-.126-.098-.148-.28-.05-.405a.29.29 0 0 1 .406-.048 10.49 10.49 0 0 0 1.896 1.19.29.29 0 0 1 .134.385.29.29 0 0 1-.259.162h0zm6.746.846c-.137 0-.258-.097-.282-.236-.029-.157.074-.307.23-.336a12.14 12.14 0 0 0 2.167-.61.29.29 0 0 1 .373.165.29.29 0 0 1-.167.373c-.738.284-1.502.499-2.268.64-.019.003-.035.004-.053.004h0zm-2.293.195a11.19 11.19 0 0 1-1.666-.148l-.684-.135c-.156-.035-.253-.189-.217-.345s.188-.254.345-.216l.648.128a11.03 11.03 0 0 0 1.577.14.29.29 0 0 1 .285.293c-.003.157-.131.283-.288.283h0zm-42.449 1.84a.29.29 0 0 1-.287-.257l-.148-2.33a.29.29 0 0 1 .285-.293c.168.013.29.125.294.284l.144 2.276c.017.159-.097.301-.255.318l-.033.002h0zm.892 4.524a.29.29 0 0 1-.278-.21l-.544-2.267c-.031-.156.07-.308.227-.339a.29.29 0 0 1 .34.227l.533 2.221c.043.153-.045.313-.2.356-.025.009-.051.012-.078.012h0zm1.59 4.328c-.111 0-.214-.063-.263-.169l-.884-2.154c-.056-.149.021-.315.171-.37a.29.29 0 0 1 .371.171l.867 2.114a.29.29 0 0 1-.142.382c-.04.018-.081.026-.12.026h0zm2.214 4.044a.29.29 0 0 1-.243-.132L7.399 59.14c-.077-.14-.025-.315.113-.391a.29.29 0 0 1 .393.115l1.17 1.961c.087.134.05.313-.084.399-.05.031-.103.047-.157.047h0zm2.803 3.656c-.079 0-.157-.032-.214-.095l-1.489-1.791c-.097-.127-.072-.308.054-.404a.29.29 0 0 1 .405.054l1.458 1.755a.29.29 0 0 1-.021.407c-.055.05-.122.074-.193.074h0zm3.376 3.123c-.062 0-.124-.019-.175-.059-.605-.46-1.205-.965-1.779-1.5-.118-.108-.124-.29-.015-.407a.29.29 0 0 1 .408-.016l1.734 1.464a.29.29 0 0 1 .056.404c-.056.076-.142.114-.229.114h0zm3.929 2.374c-.041 0-.082-.009-.121-.027-.707-.328-1.398-.697-2.058-1.095-.136-.083-.182-.26-.099-.396a.29.29 0 0 1 .397-.097c.641.387 1.313.745 2.002 1.065.144.066.206.238.138.383a.28.28 0 0 1-.259.167h0zm4.336 1.522c-.022 0-.048-.003-.072-.009l-2.227-.667c-.152-.053-.23-.217-.177-.367a.29.29 0 0 1 .366-.178l2.179.653c.155.039.25.196.209.351-.033.13-.15.217-.278.217h0zm4.528.845c-.013 0-.025-.001-.039-.003l-2.291-.357c-.156-.029-.259-.179-.23-.336s.182-.262.336-.231l2.262.354a.29.29 0 0 1 .249.324c-.022.143-.146.249-.287.249h0zm4.586.459c-.008 0-.016 0-.023-.001l-2.301-.2a.29.29 0 0 1-.26-.314c.016-.158.158-.271.315-.259l2.29.198a.29.29 0 0 1 .266.31.29.29 0 0 1-.287.266h0zm4.597.32l-2.32-.154a.29.29 0 0 1-.27-.308c.013-.159.148-.274.309-.268l2.301.153a.29.29 0 0 1 .269.307.29.29 0 0 1-.289.27h0zm4.6.338c-.009 0-.017 0-.024-.001l-2.295-.179a.29.29 0 0 1-.268-.308c.012-.16.15-.281.309-.267l2.303.179a.29.29 0 0 1 .264.312c-.014.149-.141.264-.289.264h0zm4.589.454c-.011 0-.023-.001-.033-.003l-2.288-.244a.29.29 0 0 1-.26-.314c.017-.158.162-.272.317-.26l2.297.246c.158.018.271.161.253.319a.29.29 0 0 1-.286.256h0zm4.568.621c-.015 0-.031-.001-.046-.003l-2.275-.334c-.156-.021-.269-.166-.245-.325s.16-.266.323-.246l2.288.335c.157.024.264.172.239.329-.022.142-.144.244-.284.244h0zm4.537.815a.3.3 0 0 1-.058-.006l-2.258-.431c-.156-.028-.262-.179-.232-.336s.182-.262.334-.232l2.271.434c.157.032.257.185.225.34-.027.137-.148.231-.282.231h0zm4.496 1.017c-.022 0-.046-.003-.069-.009l-2.237-.532c-.154-.034-.251-.188-.217-.345a.29.29 0 0 1 .344-.218l2.25.536c.154.038.249.194.21.349a.29.29 0 0 1-.281.219h0zm4.45 1.216c-.027 0-.056-.004-.082-.013l-2.21-.63a.29.29 0 0 1-.205-.354c.044-.153.203-.243.354-.202l2.225.633a.29.29 0 0 1 .194.359.29.29 0 0 1-.276.207h0zm4.407 1.365c-.028 0-.058-.004-.086-.013l-2.202-.69c-.152-.048-.237-.209-.189-.361s.203-.237.36-.189l2.206.69c.15.049.234.211.188.363a.29.29 0 0 1-.277.2h0zm4.387 1.445c-.031 0-.063-.005-.093-.016l-2.188-.734a.29.29 0 0 1-.183-.363.29.29 0 0 1 .364-.184l2.192.736c.152.051.232.215.179.366-.04.12-.151.195-.271.195h0zm4.343 1.571c-.034 0-.069-.006-.103-.019l-2.16-.802a.29.29 0 0 1-.174-.37c.055-.149.219-.228.369-.173l2.171.806c.147.057.223.223.165.372-.043.114-.152.186-.268.186h0zm4.279 1.735c-.039 0-.076-.008-.113-.023l-2.123-.889c-.148-.059-.221-.228-.161-.375a.29.29 0 0 1 .377-.159l2.136.893a.29.29 0 0 1 .15.38c-.048.108-.155.173-.266.173h0zm4.191 1.935c-.043 0-.086-.009-.128-.029l-2.076-.992c-.146-.066-.207-.237-.142-.382a.29.29 0 0 1 .383-.142l2.091.998a.29.29 0 0 1 .13.387.29.29 0 0 1-.258.16h0zm4.074 2.174a.28.28 0 0 1-.142-.039l-2.015-1.114a.29.29 0 0 1-.119-.391.29.29 0 0 1 .391-.119l2.029 1.125a.29.29 0 0 1 .106.394c-.052.093-.149.144-.25.144h0zm3.913 2.448c-.056 0-.111-.016-.16-.049l-1.924-1.256c-.136-.084-.177-.262-.093-.396a.29.29 0 0 1 .397-.092l1.942 1.267c.131.09.167.27.076.401-.054.082-.145.125-.238.125h0zm3.696 2.761c-.066 0-.13-.021-.184-.065l-1.804-1.414a.29.29 0 0 1-.061-.403.29.29 0 0 1 .404-.059l1.827 1.431c.123.102.14.282.038.405-.055.069-.138.105-.22.105h0zm3.4 3.111c-.076 0-.15-.029-.206-.087L99.066 94.9c-.118-.107-.126-.29-.019-.407a.29.29 0 0 1 .407-.019l1.671 1.611a.29.29 0 0 1-.004.408c-.058.055-.13.083-.202.083h0zm3.016 3.485c-.087 0-.173-.039-.23-.114l-1.442-1.775c-.103-.12-.091-.302.031-.406s.301-.092.405.028l1.465 1.805c.097.127.072.308-.054.404a.3.3 0 0 1-.175.058h0zm2.522 3.856c-.101 0-.199-.054-.251-.147l-1.183-1.954a.29.29 0 0 1 .083-.399c.132-.087.313-.051.399.083l1.203 1.99c.078.139.028.314-.111.392a.3.3 0 0 1-.14.035h0zm1.928 4.18a.29.29 0 0 1-.27-.188l-.877-2.106a.29.29 0 0 1 .142-.383c.144-.067.315-.004.383.142l.895 2.147a.29.29 0 0 1-.171.37c-.034.012-.066.018-.102.018h0zm1.262 4.432c-.134 0-.253-.095-.281-.231l-.538-2.219c-.043-.153.045-.313.199-.356a.29.29 0 0 1 .354.198l.55 2.263a.29.29 0 0 1-.226.34c-.018.003-.037.005-.058.005h0zm.567 4.574a.29.29 0 0 1-.288-.274l-.195-2.276a.29.29 0 0 1 .251-.322c.161-.021.303.093.321.251l.2 2.319a.29.29 0 0 1-.274.302h-.015zm-.082 4.609a.14.14 0 0 1-.023-.002c-.16-.013-.277-.151-.263-.31l.115-2.286a.29.29 0 0 1 .288-.283c.165.003.292.135.288.294l-.117 2.321a.29.29 0 0 1-.288.266h0z"/></svg>