<svg xmlns="http://www.w3.org/2000/svg" xmlns:xlink="http://www.w3.org/1999/xlink" viewBox="0 0 351.88 353.21" xmlns:v="https://vecta.io/nano"><style><![CDATA[.P{fill:#9dbff3}.Q{fill:#1b2351}.R{fill:#32ea9f}.S{fill:#3f8ace}.T{stroke-linejoin:round}.U{stroke:#9dbff3}.V{fill:#215191}.W{stroke-linecap:round}.X{stroke-width:2}.Y{fill:#009af9}.Z{stroke-dasharray:0 0 0 3.97}]]></style><rect x="264.54" y="168.8" width="66.93" height="26.16" rx="3.29" class="P"/><path d="M269.7 194.95h56.61v3.8H269.7z" class="V"/><use xlink:href="#B" class="Q"/><path d="M308.41 186.12h18.4v3.03h-18.4z" class="R"/><path d="M304.34 189.16h-6.23v-3.03h6.23z" class="S"/><rect x="264.54" y="198.75" width="66.93" height="26.16" rx="3.29" class="P"/><path d="M269.7 224.91h56.61v3.8H269.7z" class="V"/><rect x="269.19" y="202.76" width="57.61" height="10.42" rx="1.51" class="Q"/><path d="M308.41 216.08h18.4v3.04h-18.4z" class="R"/><path d="M304.34 219.11h-6.23v-3.04h6.23z" class="S"/><rect x="264.54" y="228.7" width="66.93" height="26.16" rx="3.29" class="P"/><path d="M269.7 254.86h56.61v3.8H269.7z" class="V"/><use xlink:href="#B" y="59.91" class="Q"/><path d="M308.41 246.03h18.4v3.04h-18.4z" class="R"/><path d="M304.34 249.06h-6.23v-3.04h6.23z" class="S"/><g fill="none" class="T U W X"><path d="M299.35 277.27h0"/><path d="M299.35,281.24v26.47c0,24.57-19.92,44.5-44.49,44.5h0c-24.57,0-44.49-19.92-44.49-44.5v-38.26" class="Z"/><path d="M210.36 267.47h0"/></g><path d="M295.59,277.46c0-2.08,1.68-3.76,3.76-3.76s3.76,1.68,3.76,3.76-1.68,3.76-3.76,3.76-3.76-1.68-3.76-3.76Z" class="P"/><g fill="none" class="T U W X"><path d="M44.53 75.93h0"/><path d="M44.53 71.96V45.49C44.53 20.92 64.45 1 89.02 1h0c24.57 0 44.49 19.92 44.49 44.49v38.26" class="Z"/><path d="M133.52 85.74h0"/></g><path d="M48.29,75.75c0,2.08-1.68,3.76-3.76,3.76s-3.76-1.68-3.76-3.76,1.68-3.76,3.76-3.76,3.76,1.68,3.76,3.76Z" class="P"/><path d="M348.99 147.37h-2.67c.35-1.42.56-2.92.56-4.46 0-9.68-7.85-17.53-17.53-17.53-1.04 0-2.04.08-3.02.27v-.27c0-14.04-11.37-25.41-25.41-25.41-13.29 0-24.18 10.18-25.3 23.18-11.31 1.29-20.07 10.87-20.07 22.51a24 24 0 0 0 .06 1.71h-2.17c-1.6 0-2.89 1.29-2.89 2.89s1.29 2.89 2.89 2.89h95.54c1.6 0 2.89-1.29 2.89-2.89s-1.29-2.89-2.89-2.89z" fill="#5259a2"/><rect y="87.07" width="75.42" height="126.75" rx="9.45" class="P"/><rect x="-20.67" y="117.74" width="116.75" height="65.42" rx="4.45" transform="matrix(0 1 -1 0 188.16 112.74)" class="Q"/><circle cx="37.71" cy="150.45" r="26.85" transform="matrix(.922538 -.385906 .385906 .922538 -55.13 26.2)" class="S"/><circle cx="37.71" cy="150.45" r="21.93" transform="matrix(.948268 -.31747 .31747 .948268 -45.82 19.76)" fill="#fff"/><path d="M32.6 162.82h-.02c-.63 0-1.23-.31-1.6-.83l-5.53-7.65a1.99 1.99 0 0 1 .45-2.79c.89-.65 2.14-.45 2.79.45l3.95 5.46 14.12-18.59c.67-.88 1.92-1.05 2.8-.38s1.05 1.92.38 2.8l-15.75 20.74a2 2 0 0 1-1.59.79z" class="R"/><path d="M24.39 228.33h0a2.7 2.7 0 0 0-2.7-2.7H7.63a2.7 2.7 0 0 0-2.7 2.7v43.06h56.93v-36.26a4.1 4.1 0 0 0-4.1-4.1H27.09a2.7 2.7 0 0 1-2.7-2.7z" fill="#292f5d"/><path d="M4.93 271.39l4.77-32.31a4.1 4.1 0 0 1 4.05-3.5H62.5c2.51 0 4.43 2.23 4.05 4.71l-4.69 31.1H4.93z" fill="#5259a2"/><path d="M299.48 57.67c-14.36 0-26 11.64-26 26s11.64 26 26 26 26-11.64 26-26-11.64-26-26-26zm-6.69 2.47c-1.18 1.25-2.27 2.84-3.24 4.75-.6 1.18-1.13 2.46-1.6 3.81-.21-.12-.42-.23-.63-.36-.16-.09-.31-.19-.47-.28a25.37 25.37 0 0 1-3.58-2.69c2.76-2.45 6-4.22 9.51-5.22zm-10.8 6.45c1.25 1.14 2.59 2.15 4.01 3.03.17.11.33.2.49.3.3.18.6.35.91.51-1.1 3.74-1.71 7.88-1.79 12.35h-10.58a24.23 24.23 0 0 1 6.95-16.19zm-6.95 18.01h10.57c.08 4.47.7 8.58 1.79 12.29-.31.16-.61.35-.91.53-.16.09-.32.2-.49.31-1.43.88-2.78 1.87-4.03 3.02a24.3 24.3 0 0 1-6.92-16.14zm8.22 17.41c1.12-1.01 2.32-1.92 3.6-2.72.16-.1.31-.19.47-.28l.63-.36c.47 1.35 1 2.62 1.6 3.81.97 1.91 2.06 3.5 3.24 4.75a24.38 24.38 0 0 1-9.54-5.2zm15.27 6.11h-.19a23.43 23.43 0 0 1-1.88-.16c-2.1-1.08-4.05-3.28-5.64-6.46-.55-1.1-1.05-2.29-1.48-3.54a24.41 24.41 0 0 1 5.4-1.84c.17-.04.35-.07.53-.11 1.08-.21 2.11-.34 3.27-.41v12.53zm0-14.3c-1.33.07-2.39.21-3.55.43-.17.03-.35.07-.56.11-1.95.41-3.83 1.01-5.63 1.84-1.01-3.5-1.59-7.46-1.67-11.6h11.41v9.22zm0-11.04h-11.42c.07-4.14.65-8.14 1.67-11.66 1.8.83 3.68 1.46 5.63 1.87l.56.11c1.17.22 2.23.37 3.56.43v9.25zm0-11.02a24.14 24.14 0 0 1-3.27-.41l-.53-.11c-1.87-.4-3.67-1.02-5.4-1.84.44-1.25.93-2.44 1.48-3.54 1.6-3.18 3.54-5.38 5.64-6.46a23.68 23.68 0 0 1 1.89-.16h.19v12.53zm25.41 11.02h-10.58c-.07-4.14-.64-8.25-1.65-11.86.32-.15.63-.32.95-.48l.5-.28a26.29 26.29 0 0 0 4.32-3.04 24.4 24.4 0 0 1 6.45 15.66zm-7.71-16.93c-1.2 1.02-2.5 1.93-3.87 2.71-.17.1-.33.18-.48.26l-.69.36c-.51-1.53-1.1-2.97-1.77-4.3-.97-1.91-2.06-3.5-3.24-4.75 3.75 1.06 7.17 3.01 10.05 5.72zm-15.88-6.62h.26c.63.03 1.27.08 1.9.16 2.1 1.08 4.06 3.28 5.66 6.46.62 1.23 1.16 2.56 1.63 3.97a24.85 24.85 0 0 1-5.5 1.62c-.17.03-.37.06-.56.09-1.1.17-2.22.25-3.38.27V59.23zm0 14.34c1.16-.02 2.44-.11 3.61-.28.22-.03.41-.06.57-.09a26.81 26.81 0 0 0 5.77-1.65c.95 3.42 1.49 7.26 1.56 11.24h-11.51v-9.21zm0 11.03h11.51c-.08 3.98-.61 7.78-1.55 11.17-1.85-.77-3.77-1.3-5.75-1.64-.16-.03-.38-.05-.59-.08-1.18-.17-2.46-.26-3.62-.27V84.6zm2.15 23.35a23.93 23.93 0 0 1-1.9.16h-.25V95.54c1.16.02 2.28.1 3.38.27l.55.09c1.89.33 3.74.87 5.51 1.62-.47 1.41-1.01 2.74-1.62 3.97-1.6 3.18-3.55 5.38-5.66 6.46zm3.67-.74c1.18-1.25 2.27-2.84 3.24-4.75.67-1.33 1.26-2.77 1.77-4.3.23.12.46.23.69.36.15.08.3.17.48.26a24.45 24.45 0 0 1 3.9 2.74 24.28 24.28 0 0 1-10.08 5.69zm11.34-7c-1.35-1.16-2.81-2.16-4.35-3.02l-.5-.28c-.31-.17-.63-.36-.95-.52 1-3.59 1.57-7.49 1.64-11.8h10.57c-.24 6.13-2.61 11.47-6.42 15.62zM48.21 294.52l-.07-.5-.09-.5-.05-.25-.13-.5c-.46-1.62-1.28-3.07-2.43-4.31-.93-1-2.02-1.79-3.25-2.37h0l-.33-.15-.31-.13-.97-.33-.49-.13-.5-.1-.25-.04c-.48-.08-.97-.12-1.46-.13a11.8 11.8 0 0 0-1.46.08l-.58.09c-.58.1-1.16.26-1.71.46-1.35.48-2.57 1.23-3.63 2.21-2.18 2.03-3.4 4.89-3.37 7.87a9.67 9.67 0 0 0 .04.76l.02.25.07.5c.08.51.2 1.01.35 1.49l.16.49c.48 1.33 1.22 2.53 2.2 3.58 1.16 1.24 2.54 2.16 4.13 2.74l.49.16c.24.08.49.14.74.2l.5.1.25.04.5.07c.25.03.5.05.76.05h.38.13c.42 0 .85-.04 1.26-.09l.5-.08.5-.1.74-.2a10.57 10.57 0 0 0 4.07-2.36c.65-.61 1.23-1.3 1.71-2.04l.27-.45.36-.69.21-.47.13-.32.22-.65.14-.49.09-.4.07-.35.04-.25.07-.5.02-.25.03-.51v-.25l-.03-1.02-.02-.25zM47 296c0 .15-.01.3-.03.44l-.02.23-.06.45-.04.22-.06.31c-.02.12-.05.23-.08.35l-.12.43-.2.57-.11.28-.19.41-.32.61-.24.39c-.42.66-.93 1.26-1.5 1.8-1.03.96-2.24 1.66-3.58 2.08l-.65.18-.44.09-.44.07c-.37.05-.74.08-1.11.08h-.45c-.22 0-.45-.02-.67-.05l-.44-.06-.22-.04-.44-.09-.65-.18-.43-.14c-1.39-.5-2.61-1.31-3.63-2.41a9.09 9.09 0 0 1-1.93-3.15l-.14-.43c-.13-.43-.24-.87-.3-1.31l-.06-.45-.02-.22-.03-.67c-.03-2.62 1.05-5.14 2.96-6.93.93-.87 2-1.52 3.19-1.95.49-.18 1-.31 1.51-.4l.51-.08c.37-.05.75-.07 1.13-.07h.16c.43 0 .86.04 1.29.11l.22.04.44.09c.15.03.29.07.43.11a7.72 7.72 0 0 1 .85.29l.28.11.29.13c1.08.51 2.04 1.21 2.86 2.09a9.1 9.1 0 0 1 2.14 3.8l.11.43.05.22.08.44.06.44.02.22.03.9v.22zm18.21-4.52a2.3 2.3 0 0 0-1.59-.73l-3.61-.12c-.41-1.96-.96-3.74-2.09-5.74l2.64-2.46c.92-.86.98-2.41.13-3.33l-4.87-5.23a1.76 1.76 0 0 0-1.63-.56c-.48.08-.97.35-1.42.76l-2.65 2.46c-1.76-1.2-3.56-2.05-5.73-2.7l.02-3.74c.04-1.26-.95-2.32-2.21-2.37l-7.14-.25c-1.25-.04-2.33.95-2.37 2.21l-.14 3.65c-2.27.48-4.02 1.13-5.83 2.15l-2.46-2.64c-.43-.46-.94-.69-1.52-.67-.52.02-1.03.25-1.48.67l-5.23 4.87c-.92.86-.97 2-.12 2.92l2.46 2.65c-1.17 1.72-1.99 3.47-2.65 5.67l-3.69-.06c-.6-.02-1.19.2-1.64.62a2.29 2.29 0 0 0-.72 1.59l-.25 7.15a2.31 2.31 0 0 0 2.22 2.39l3.72.16c.47 2.18 1.19 4.11 2.26 6l-2.64 2.46c-1.01.94-1.13 2.02-.33 2.88l4.87 5.23c.9.96 2.35 1.07 3.24.24l2.65-2.47c1.87 1.27 3.56 1.95 5.55 2.53l-.16 3.58c-.04 1.26.95 2.32 2.21 2.37l7.15.25h.08a2.28 2.28 0 0 0 1.56-.62c.45-.42.71-.99.73-1.59l.15-3.69c2.21-.47 4.07-1.17 5.92-2.21l2.46 2.64c.83.89 2.24 1.35 3.2.45l5.23-4.87c.96-.9.73-2.49-.08-3.36l-2.48-2.66c1.13-1.82 2.03-3.77 2.6-5.59l3.64.11a2.31 2.31 0 0 0 1.64-.61 2.26 2.26 0 0 0 .73-1.59l.26-7.14c.02-.61-.19-1.19-.61-1.64zm-.91 8.74c0 .27-.13.52-.32.71-.2.19-.47.28-.74.27l-4.13-.13c-.32-.02-.55.18-.63.46-.56 1.98-1.57 4.16-2.85 6.14a.65.65 0 0 0 .08.79l2.8 3.01c.38.41.53 1.21.14 1.57l-5.23 4.87c-.39.36-1.06 0-1.41-.39l-2.8-3.01c-.2-.22-.53-.27-.79-.11-2.01 1.2-3.92 1.92-6.4 2.4a.6.6 0 0 0-.38.24l-.05.06c-.08.1-.12.23-.13.36l-.17 4.13c0 .27-.13.53-.33.72a.97.97 0 0 1-.74.28l-7.15-.25c-.56-.02-1.01-.49-.99-1.05l.18-4.07c.01-.29-.18-.56-.46-.64-2.23-.63-4.02-1.31-6.07-2.78a.59.59 0 0 0-.36-.11c-.16 0-.33.06-.45.18l-3.01 2.8c-.42.39-1.08.21-1.45-.18l-4.87-5.23c-.17-.18-.42-.45.26-1.09l3.01-2.8c.22-.2.27-.53.11-.79-1.22-2.05-1.98-4.04-2.45-6.45-.03-.14-.1-.27-.21-.36l-.09-.07c-.11-.09-.24-.14-.38-.15l-4.15-.18c-.56-.02-1.02-.51-1-1.08l.25-7.15c0-.27.12-.53.32-.71.2-.19.45-.28.74-.27l4.18.07c.32 0 .54-.18.62-.46.7-2.5 1.54-4.29 2.89-6.17.18-.24.14-.59-.06-.81l-2.8-3.01c-.38-.41-.36-.74.06-1.13l5.23-4.87c.22-.2.45-.32.66-.33.21 0 .38.08.55.27l2.8 3.01c.2.22.53.26.79.11 1.96-1.17 3.8-1.85 6.34-2.35a.7.7 0 0 0 .46-.38c.04-.08.06-.17.06-.25l.16-4.12c.02-.56.5-1.02 1.06-.99l7.14.25c.56.02 1 .49.98 1.07l-.02 4.24c0 .29.19.54.46.61 2.43.69 4.3 1.57 6.22 2.95.25.18.59.14.82-.06l3.01-2.8c.26-.24.53-.4.77-.44.2-.03.34.02.49.17l4.87 5.23c.38.41.35 1.15-.07 1.54l-3.01 2.8c-.22.2-.27.53-.11.79 1.31 2.2 1.87 4.11 2.3 6.29.05.24.23.42.46.48a.75.75 0 0 0 .21.02l4.03.14a.98.98 0 0 1 .71.32c.19.2.28.46.27.73l-.26 7.14zm-9.16-6.45l-.11-.84-.15-.83-.09-.42-.21-.82c-.76-2.69-2.12-5.1-4.04-7.16a17.36 17.36 0 0 0-5.39-3.93h0l-.55-.25-.52-.21c-.53-.21-1.07-.39-1.61-.54l-.82-.21-.83-.17-.42-.07c-.8-.12-1.61-.2-2.42-.21s-1.63.03-2.43.13l-.97.14c-.97.17-1.92.43-2.85.76-2.24.8-4.26 2.04-6.02 3.67-3.61 3.36-5.65 8.13-5.59 13.07 0 .42.03.85.06 1.26.01.14.03.28.04.42a24.13 24.13 0 0 0 .11.84c.13.84.32 1.67.58 2.48.08.27.18.54.27.81.8 2.21 2.03 4.21 3.65 5.94 1.92 2.06 4.22 3.59 6.85 4.54.27.1.54.19.8.27.4.12.82.24 1.23.33.27.06.55.12.83.17a6.13 6.13 0 0 0 .42.07l.84.11a13.34 13.34 0 0 0 1.26.09c.21 0 .42.01.63.01h.21c.7 0 1.41-.06 2.1-.15l.84-.13c.28-.05.55-.11.83-.17a24.68 24.68 0 0 0 1.23-.33 17.28 17.28 0 0 0 6.75-3.92 17.28 17.28 0 0 0 2.83-3.39c.16-.24.31-.49.45-.74a24.75 24.75 0 0 0 .6-1.14l.35-.78.21-.53c.13-.35.26-.71.37-1.07l.23-.81c.06-.22.11-.44.15-.66l.12-.58c.02-.14.05-.28.07-.42l.11-.83a5.96 5.96 0 0 0 .04-.42l.05-.84v-.42c0-.56-.01-1.12-.06-1.68-.01-.14-.03-.28-.04-.42zm-1.17 2.48c0 .26-.03.52-.05.78-.01.13-.02.26-.04.39l-.1.78c-.02.13-.04.26-.07.38-.03.18-.07.36-.11.54a13.4 13.4 0 0 1-.14.61c-.06.25-.14.51-.21.76-.1.33-.22.67-.34.99l-.19.49c-.1.24-.21.48-.32.72-.17.36-.36.72-.55 1.06-.13.23-.27.46-.42.69-.74 1.15-1.62 2.21-2.63 3.15a16.15 16.15 0 0 1-6.26 3.64c-.38.12-.76.22-1.14.31a21.06 21.06 0 0 1-.77.16 11.11 11.11 0 0 1-.77.12 15.84 15.84 0 0 1-1.95.14h-.78c-.39-.01-.78-.04-1.17-.08l-.78-.1a5.32 5.32 0 0 1-.39-.07 21.06 21.06 0 0 1-.77-.16c-.38-.09-.76-.19-1.14-.31l-.75-.25c-2.44-.88-4.58-2.3-6.36-4.21-1.5-1.61-2.64-3.47-3.38-5.51-.09-.25-.18-.5-.25-.75a16.32 16.32 0 0 1-.53-2.3c-.04-.26-.07-.52-.1-.78-.01-.13-.03-.26-.04-.39a22.91 22.91 0 0 1-.06-1.17c-.06-4.58 1.84-9 5.19-12.12 1.63-1.52 3.51-2.66 5.58-3.41.86-.31 1.74-.54 2.64-.7.3-.05.6-.1.9-.13.65-.08 1.32-.12 1.98-.12h.28c.75.01 1.51.08 2.25.19a5.32 5.32 0 0 1 .39.07l.77.16c.25.06.51.12.76.2.5.14 1.01.31 1.49.5.16.06.32.13.48.2.17.07.34.15.51.23 1.89.89 3.57 2.11 5 3.65 1.78 1.91 3.04 4.15 3.75 6.64l.2.76c.03.13.06.25.08.38l.14.77c.04.26.07.52.1.78.01.13.03.26.04.39a20.53 20.53 0 0 1 .06 1.56v.39z" class="Y"/><g fill="none" class="T W X"><path d="M37.63 222.34v-34.11m-8.21 37.18v-25.94m15.22 29.95v-36.1m255.44-30.88v-34.1m-8.21 37.18v-25.95m15.22 29.95v-36.1" stroke="#fff"/><path d="M220.25 267.47v40.33c0 19.11 15.49 34.6 34.6 34.6h0c19.11 0 34.6-15.49 34.6-34.6v-40.33M123.63 85.6V45.27c0-19.11-15.49-34.6-34.6-34.6h0c-19.11 0-34.6 15.49-34.6 34.6V85.6" class="U"/></g><rect x="113.84" y="38.42" width="47.05" height="38.5" rx="7.52" fill="#ed7630"/><path d="M132.15 55.63l-6.74 2.47 6.74 2.45v2.53l-9.64-3.66v-2.63l9.64-3.66v2.51zm7.26-7.5h2.81l-6.68 19.07h-2.81l6.68-19.07zm12.82 8.65v2.63l-9.64 3.66v-2.53l6.74-2.45-6.74-2.47v-2.51l9.64 3.66z" fill="#fff"/><path d="M194.48,273.24h32.01c4.15,0,7.52,3.37,7.52,7.52v23.46c0,4.15-3.37,7.52-7.52,7.52h-32.01c-4.15,0-7.52-3.37-7.52-7.52v-23.46c0-4.15,3.37-7.52,7.52-7.52Z" fill="#f5c544"/><g fill="#fff"><path d="M197.2 292.49c.91.31 1.33.91 1.33 2.32v6.99c0 1.44.68 2.27 2.15 2.27h.76v1.67h-1.05c-2.55 0-3.88-1.25-3.88-3.77v-7.19c0-1.02-.45-1.44-1.27-1.44h-.96v-1.7h.96c.82 0 1.27-.42 1.27-1.44v-7.19c0-2.52 1.33-3.77 3.88-3.77h1.05v1.67h-.76c-1.47 0-2.15.82-2.15 2.27v6.99c0 1.42-.42 2.01-1.33 2.32zm25.83-2.32v-6.99c0-1.44-.68-2.27-2.15-2.27h-.76v-1.67h1.05c2.55 0 3.88 1.25 3.88 3.77v7.19c0 1.02.45 1.44 1.27 1.44h.96v1.7h-.96c-.82 0-1.27.42-1.27 1.44v7.19c0 2.52-1.33 3.77-3.88 3.77h-1.05v-1.67h.76c1.47 0 2.15-.82 2.15-2.27v-6.99c0-1.42.42-2.01 1.33-2.32-.91-.31-1.33-.91-1.33-2.32z"/><use xlink:href="#C"/><use xlink:href="#C" x="-7.35"/><use xlink:href="#C" x="-14.7"/></g><rect x="107.03" y="117.52" width="114.84" height="114.84" rx="17.97" class="Q"/><rect x="119.05" y="129.54" width="90.78" height="90.78" rx="9.01" transform="matrix(0 1 -1 0 339.38 10.49)" stroke-width="1.37" fill="none" class="T U"/><path d="M205.09 138.33v73.2c0 2.23-1.81 4.04-4.04 4.04h-73.2c-2.23 0-4.04-1.81-4.04-4.04v-73.2c0-2.23 1.81-4.04 4.04-4.04h73.2c2.23 0 4.04 1.81 4.04 4.04z" class="Y"/><path d="M151.3 182.5h-10.46l-1.94 4.81h-7.14l10.92-24.75h6.89l10.96 24.75h-7.28l-1.94-4.81zm-2.05-5.16l-3.18-7.92-3.18 7.92h6.36zm35.56-5.62c0 5.62-4.24 9.12-10.99 9.12h-4.31v6.47h-7v-24.75h11.31c6.75 0 10.99 3.5 10.99 9.16zm-7.07 0c0-2.3-1.45-3.64-4.35-3.64h-3.89v7.25h3.89c2.9 0 4.35-1.34 4.35-3.61zm10.46-9.16h7v24.75h-7v-24.75z" fill="#fff"/><g class="Y"><use xlink:href="#D"/><use xlink:href="#D" x="12.09"/><use xlink:href="#D" x="24.17"/><use xlink:href="#D" x="36.26"/><use xlink:href="#D" x="48.35"/><use xlink:href="#D" x="60.43"/><use xlink:href="#D" y="130.08"/><use xlink:href="#D" x="12.09" y="130.08"/><use xlink:href="#D" x="24.17" y="130.08"/><use xlink:href="#D" x="36.26" y="130.08"/><use xlink:href="#D" x="48.35" y="130.08"/><use xlink:href="#D" x="60.43" y="130.08"/></g><path d="M91.77 202.12h15.25v6.05H91.77zm0-12.08h15.25v6.05H91.77zm0-12.09h15.25V184H91.77zm0-12.08h15.25v6.05H91.77zm0-12.09h15.25v6.05H91.77zm0-12.08h15.25v6.05H91.77zm130.09 60.42h15.25v6.05h-15.25zm0-12.08h15.25v6.05h-15.25zm0-12.09h15.25V184h-15.25zm0-12.08h15.25v6.05h-15.25zm0-12.09h15.25v6.05h-15.25zm0-12.08h15.25v6.05h-15.25z" fill="#292f5d"/><defs ><path id="B" d="M270.7 172.8h54.6c.83 0 1.51.68 1.51 1.51v7.41c0 .83-.68 1.51-1.51 1.51h-54.6c-.83 0-1.51-.68-1.51-1.51v-7.41c0-.83.68-1.51 1.51-1.51z"/><path id="C" d="M216.88 298.25a1.25 1.25 0 1 0 2.5 0 1.25 1.25 0 1 0-2.5 0z"/><path id="D" d="M131.2 102.27h6.05v15.25h-6.05z"/></defs></svg>