<svg xmlns="http://www.w3.org/2000/svg" xmlns:xlink="http://www.w3.org/1999/xlink" width="939.917" height="692.57" xmlns:v="https://vecta.io/nano"><style><![CDATA[.B{fill:#0050ff}.C{fill:#f5f5f5}.D{fill:#e6e6e6}.E{fill:#fff}.F{opacity:.3}.G{opacity:.2}.H{fill:#263238}.I{fill:#b55b52}.J{fill:#fafafa}.K{fill:#ebebeb}]]></style><path d="M6 598.736h913.03v.456H6zm761.064 29.392h60.482v.456h-60.482zm-172.11 4.954h15.875v.456h-15.875zm135.236-21.909h35.047v.456H730.19zm-628.397 3.066h78.874v.457h-78.874zm95.132 0h11.564v.457h-11.564zm49.15 7.711h171.058v.457H246.075zm192.727-104.653H86.191c-5.748 0-10.423-4.676-10.423-10.424V11.223c0-5.747 4.675-10.422 10.423-10.422h352.61c5.745 0 10.421 4.676 10.421 10.422v495.65c.001 5.748-4.675 10.424-10.42 10.424zM86.191 1.257a9.98 9.98 0 0 0-9.966 9.966v495.65a9.98 9.98 0 0 0 9.966 9.967h352.61a9.98 9.98 0 0 0 9.965-9.967V11.223a9.98 9.98 0 0 0-9.965-9.966H86.191zm747.581 516.04H481.163c-5.747 0-10.421-4.676-10.421-10.424V11.223c0-5.747 4.674-10.422 10.421-10.422h352.609c5.748 0 10.423 4.676 10.423 10.422v495.65c0 5.748-4.674 10.424-10.423 10.424zM481.163 1.257a9.98 9.98 0 0 0-9.965 9.966v495.65a9.98 9.98 0 0 0 9.965 9.967h352.609a9.98 9.98 0 0 0 9.966-9.967V11.223a9.98 9.98 0 0 0-9.966-9.966H481.163z" class="K"/><path d="M333.105 62.27h423.088v281.334H333.105z" class="D"/><path d="M326.557 62.27h423.089v281.334H326.557z" class="C"/><path d="M338.311 75.473h399.58v254.928h-399.58z" class="E"/><path d="M338.311 75.473h4.95v254.928h-4.95z" class="D"/><path d="M331.418 251.165h413.366v17.724H331.418z" class="C"/><g opacity=".4"><path d="M313.439 48.379h39.944v238.017h-39.944z" class="D"/><path d="M353.383 48.379h19.801v218.89h-19.801z" class="C"/><path d="M373.185 48.379h39.943v238.017h-39.943z" class="D"/><path d="M413.128 48.379h19.803v218.89h-19.803z" class="C"/><path d="M432.931 48.379h39.945v238.017h-39.945z" class="D"/><path d="M472.876 48.379h19.802v218.89h-19.802z" class="C"/><path d="M492.678 48.379h39.943v238.017h-39.943z" class="D"/><path d="M532.621 48.379h19.802v218.89h-19.802z" class="C"/><path d="M552.423 48.379h39.944v238.017h-39.944z" class="D"/><path d="M592.367 48.379h19.802v218.89h-19.802z" class="C"/><path d="M612.169 48.379h39.942v238.017h-39.942z" class="D"/><path d="M652.111 48.379h19.802v218.89h-19.802z" class="C"/><path d="M671.913 48.379h39.945v238.017h-39.945z" class="D"/><path d="M711.858 48.379h19.801v218.89h-19.801z" class="C"/><path d="M731.659 48.379h39.945v238.017h-39.945z" class="D"/></g><path d="M157.185 406.271h93.655v192.465h-93.655z" class="K"/><path d="M174.974 598.736h-17.789v-39.194h36.439z" class="C"/><path d="M691.555 406.271h93.656v192.465h-93.656z" class="K"/><path d="M157.185 406.271h549.894v168.414H157.185z" class="C"/><path d="M688.797 527.17H525.788c-.828 0-1.498-.668-1.498-1.498V419.104a1.5 1.5 0 0 1 1.498-1.498h30.103a1.52 1.52 0 0 1 .892.292c4.319 3.196 9.266 5.731 14.7 7.54 6.225 2.087 12.848 3.143 19.687 3.143h32.249c12.882 0 25.094-3.793 34.386-10.679a1.49 1.49 0 0 1 .892-.296h30.102a1.5 1.5 0 0 1 1.498 1.498v106.567a1.5 1.5 0 0 1-1.5 1.499zm-161.512-2.996h160.014v-103.57h-28.113c-9.751 7.08-22.432 10.972-35.768 10.972h-32.249c-7.164 0-14.106-1.106-20.636-3.295-5.563-1.852-10.654-4.434-15.134-7.677h-28.114v103.57zm-13.654 2.996H350.619c-.828 0-1.498-.668-1.498-1.498V419.104a1.5 1.5 0 0 1 1.498-1.498h28.47a1.52 1.52 0 0 1 .892.292c4.348 3.218 9.293 5.753 14.697 7.54 6.228 2.087 12.851 3.143 19.689 3.143h32.248c12.861 0 25.062-3.793 34.351-10.679.257-.192.571-.296.892-.296h31.773a1.5 1.5 0 0 1 1.498 1.498v106.567c0 .831-.671 1.499-1.498 1.499zm-161.514-2.996h160.016v-103.57h-29.784c-9.75 7.08-22.417 10.972-35.733 10.972h-32.248c-7.163 0-14.105-1.106-20.636-3.295-5.535-1.83-10.627-4.412-15.133-7.677h-26.481v103.57zm-13.655 2.996h-163.01c-.827 0-1.498-.668-1.498-1.498V419.104a1.5 1.5 0 0 1 1.498-1.498h28.468a1.51 1.51 0 0 1 .89.292c4.324 3.196 9.271 5.734 14.701 7.54 6.226 2.087 12.849 3.143 19.688 3.143h32.249c12.882 0 25.094-3.793 34.386-10.679.257-.192.571-.296.892-.296h31.737a1.5 1.5 0 0 1 1.498 1.498v106.567a1.5 1.5 0 0 1-1.499 1.499zm-161.511-2.996h160.014v-103.57h-29.749c-9.751 7.08-22.432 10.972-35.769 10.972h-32.249c-7.164 0-14.106-1.106-20.636-3.295-5.562-1.852-10.651-4.434-15.133-7.677H176.95v103.57z" class="D"/><path d="M689.291 598.736h17.788v-39.194H670.64z" class="C"/><g class="D"><path d="M268.851 374.027h-14.773c.1-10.232-.049-36.188-1.047-95.671-1.794-107.817-5.233-114.39-5.233-114.39l17.553 53.213c4.13 12.521 6.613 25.545 7.203 38.718 1.857 41.481-5.39 74.607-3.703 118.13z"/><path d="M280.068 201.139c19.703-29.822 59.041-45.383 99.245-60.032 15.785-5.752-28.518 65.601-60.727 97.945-25.021 25.126-49.208 24.565-56.476 49.404-1.391-28.831.982-61.622 17.958-87.317z"/><path d="M257.498 181.992c-15.439-34.873-54.469-80.103-98.335-111.965-17.221-12.509 25.272 94.875 55.246 138.878 23.335 34.257 45.109 55.112 48.497 79.551 14.712-30.572 10.032-71.593-5.408-106.464z"/></g><g fill="#f0f0f0"><path d="M258.961 406.271h0c17.337 0 31.663-13.525 32.658-30.832l2.89-29.57h-71.095l2.89 29.57c.995 17.307 15.321 30.832 32.657 30.832z"/><path d="M218.811 346.026h80.3l2.301-10.503h-84.9zm3.957 18.011h72.388l2.073-10.501h-76.535z"/></g><ellipse cx="462.516" cy="660.529" rx="354.053" ry="20.678" class="C"/><path d="M178.955 481.75h567.12v64.201h-567.12z" class="B"/><path d="M624.425 481.75h121.65v64.201h-121.65z" class="F"/><path d="M178.955 545.951h62.607v114.578h-62.607z" class="B"/><path d="M178.955 545.951v6.405l44.346 13.393v94.78h18.261V545.951z" class="F"/><path d="M683.469 545.951h62.606v114.578h-62.606z" class="B"/><path d="M683.469 545.951h62.606v114.578h-62.606z" class="G"/><path d="M683.469 545.951v6.405l44.345 13.393v94.78h18.261V545.951z" class="F"/><path d="M561.818 545.951h62.606v114.578h-62.606z" class="B"/><path d="M561.818 545.951v6.405l44.346 13.393v94.78h18.261V545.951z" class="F"/><path d="M300.604 545.951h62.607v114.578h-62.607z" class="B"/><path d="M300.604 545.951h62.607v114.578h-62.607z" class="G"/><path d="M300.604 545.951v6.405l44.347 13.393v94.78h18.26V545.951z" class="F"/><use xlink:href="#B" class="H"/><use xlink:href="#B" opacity=".6"/><path d="M665.314 469.12H318.596c-4.614 0-8.15-3.775-7.86-8.391l14.285-226.605c.291-4.614 4.304-8.389 8.917-8.389h346.72c4.612 0 8.149 3.775 7.858 8.389l-14.285 226.605c-.289 4.616-4.303 8.391-8.917 8.391zm-.438 2.851H252.313c-3.988 0-7.45 2.322-9.045 5.655-.917 1.917.486 4.124 2.647 4.124h425.359c2.16 0 3.563-2.207 2.646-4.124a10.03 10.03 0 0 0-9.044-5.655z" class="H"/><path opacity=".6" d="M664.876 471.971h-58.673c-3.987 0-7.446 2.322-9.042 5.655-.919 1.917.486 4.124 2.646 4.124h71.467c2.16 0 3.563-2.207 2.646-4.124a10.03 10.03 0 0 0-9.044-5.655z"/><path d="M628.498 479.125h-15.144c-.731 0-1.331-.599-1.331-1.331h0c0-.733.6-1.333 1.331-1.333h15.144c.73 0 1.33.6 1.33 1.333h0c0 .732-.599 1.331-1.33 1.331z" class="B"/><path opacity=".7" d="M433.604 479.125h-15.141c-.732 0-1.331-.599-1.331-1.331h0c0-.733.599-1.333 1.331-1.333h15.141a1.34 1.34 0 0 1 1.332 1.333h0c.001.732-.599 1.331-1.332 1.331z" class="E"/><path d="M644.176 479.125h-9.901a1.1 1.1 0 0 1-1.098-1.098v-.468a1.1 1.1 0 0 1 1.098-1.099h9.901a1.1 1.1 0 0 1 1.099 1.099v.468c-.001.603-.496 1.098-1.099 1.098z" class="B"/><path d="M318.555 452.537l13.252-210.219c.113-1.796 1.676-3.267 3.473-3.267h342.358c1.797 0 3.174 1.471 3.06 3.267l-13.25 210.219c-.113 1.796-1.676 3.267-3.474 3.267H321.616c-1.798 0-3.174-1.471-3.061-3.267z" class="E"/><path opacity=".1" d="M513.316 232.578L399.279 449.331h-84.127c-1.808 0-3.177-1.46-3.067-3.269l13.257-210.216a3.55 3.55 0 0 1 3.47-3.269h184.504zm99.867 0L499.146 449.331h-26.587l114.038-216.753zm61.045 3.268l-13.257 210.216c-.109 1.809-1.68 3.269-3.47 3.269H527.907l114.036-216.753h29.217c1.809 0 3.178 1.478 3.068 3.268z" class="B"/><path opacity=".4" d="M509.313 232.759c-.085 1.357-1.255 2.459-2.611 2.459a2.28 2.28 0 0 1-2.305-2.459 2.66 2.66 0 0 1 2.614-2.458c1.358 0 2.387 1.1 2.302 2.458z" class="E"/><path d="M452.741 182.386c-9.982 11.431-15.753 46.464-8.351 63.709s-78.425 34.493-7.614 62.493 127.418-4.464 106.927-33.478 2.207-77.329-21.511-89.525c-21.446-11.029-49.429-26.125-69.451-3.199z" class="H"/><path fill="#b65b52" d="M431.584 323.478c-3.751 12.861-7.729 25.627-11.856 38.366l-12.969 38.115-1.733 4.774-.88 2.395-.271.723-.432 1.064c-.267.69-.686 1.455-1.057 2.165-1.564 2.912-4.352 5.962-7.682 7.778-3.334 1.822-6.769 2.456-9.581 2.521-5.711.087-9.866-1.287-13.675-2.688-3.765-1.494-7.103-3.239-10.284-5.082-12.563-7.532-22.844-16.445-32.651-26.396l7.871-9.278 8.224 5.198c2.775 1.712 5.598 3.338 8.381 4.968 5.598 3.195 11.244 6.224 16.817 8.608 2.77 1.188 5.537 2.205 8.1 2.865 2.502.71 4.972.951 5.961.691.519-.096.412-.292-.011-.125-.445.133-.879.631-.901.582s-.009-.008-.01-.11c.002-.036.008-.071.018-.104l.138-.464.702-2.357 1.392-4.748 11.172-38.347 11.722-38.271 23.495 7.157z"/><g class="I"><path d="M335.831 377.604l-21.153-7.882 8.427 22.408s14.962 2.163 20.77-5.714l-4.731-6.33a7.37 7.37 0 0 0-3.313-2.482z"/><path d="M295.882 376.277l8.07 18.379 19.152-2.525-8.427-22.408z"/></g><use xlink:href="#C" class="B"/><use xlink:href="#C" opacity=".5" class="E"/><path d="M415.211 304.927l20.772 4.812 1.992 20.306c-5.433 11.201-11.641 20.953-11.641 20.953l-16.219-11.021c.699-9.338 2.458-28.74 5.096-35.05z" class="G"/><use xlink:href="#D" class="B"/><use xlink:href="#D" opacity=".5" class="J"/><path d="M517.415 326.811l12.339 10.502c-2.639 13.967-4.4 25.608-5.538 35.955-2.3-10.372-8.172-38.516-6.801-46.457z" class="G"/><path d="M495.004 235.488c-2.736 13.971-5.473 39.569 4.304 48.892 0 0-9.071 20.93-33.328 20.93s-10.092-20.929-10.092-20.929c15.579-3.721 15.177-15.279 12.462-26.135l26.654-22.758z" class="I"/><path d="M496.197 279.154c-2.299 4.66-9.701 15.316-30.422 19.097-.566.104-1.178.008-1.649-.32-3.884-2.709-6.277-8.417-4.582-15.04.467-1.822-1.292-3.433-3.029-2.711a29.45 29.45 0 0 0-4.57 2.423 2.2 2.2 0 0 0-.754.831c-1.506 2.854-7.641 16.796 10.87 25.394a2.31 2.31 0 0 0 .935.219c10.869.229 30.106-1.92 42.216-23.768a2.29 2.29 0 0 0-.202-2.519c-1.336-1.688-3.78-3.38-5.598-4.505-1.134-.7-2.626-.295-3.215.899zm5.086 57.489l-24.651-.715a1.87 1.87 0 0 1-1.823-2.03l.237-3.037a2.11 2.11 0 0 1 2.135-1.917l24.652.715a1.87 1.87 0 0 1 1.822 2.031l-.239 3.035a2.11 2.11 0 0 1-2.133 1.918z" class="J"/><path d="M484.139 244.775l-15.776 13.46c.651 2.569 1.157 5.173 1.34 7.706 5.95-.859 14.127-7.392 14.758-13.624.314-3.108.185-6.096-.322-7.542z" class="G"/><path d="M513.413 209.096c-4.408 22.946-5.785 32.753-19.003 43.116-19.878 15.587-47.098 5.153-49.634-18.648-2.282-21.423 5.312-55.35 29.141-61.629 23.479-6.187 43.904 14.214 39.496 37.161z" class="I"/><g class="H"><path d="M500.346 192.075c-2.841 14.377-3.511 33.477 9.728 33.477s23.477-22.414 12.119-39.967-20.175-1.984-21.847 6.49z"/><path d="M523.108 193.851c.006 15.623-19.682 7.896-28.405 1.159s-9.205-5.998-25.26-6.028-19.377-1.116-24.145-8.826-4.34-12.782 6.401-11.159 1.715-9.333 9.729-15.419 17.464-4.548 28.406 9.333 33.265 3.85 33.274 30.94z"/></g><g class="E"><ellipse transform="matrix(.9596 .2813 -.2813 .9596 84.4279 -134.0273)" cx="509.017" cy="227.04" rx="8.636" ry="13.332"/><path d="M480.695 247.144c-4.175 0-8.348-.841-12.313-2.525-.348-.147-.51-.549-.362-.897s.548-.51.897-.363c7.488 3.178 15.751 3.222 23.261.125 7.342-3.026 13.021-8.701 15.992-15.978 5.535-15.681 11.071-35.273 4.596-47.416-2.513-4.713-6.75-7.866-12.593-9.369-.366-.094-.587-.467-.492-.833a.68.68 0 0 1 .835-.493c6.229 1.603 10.758 4.985 13.46 10.052 6.727 12.614 1.114 32.569-4.524 48.545-3.122 7.651-9.069 13.592-16.751 16.758a31.48 31.48 0 0 1-12.006 2.394z"/></g><path opacity=".6" d="M516.664 229.541c-1.628 5.552-5.362 9.346-8.341 8.473s-4.07-6.082-2.442-11.635 5.36-9.346 8.338-8.474 4.073 6.082 2.445 11.636z" class="B"/><path d="M469.395 246.526l-7.143-1.379a2.33 2.33 0 0 1-1.84-2.719l.077-.401a2.33 2.33 0 0 1 2.72-1.84l7.143 1.378c1.255.243 2.083 1.467 1.843 2.72l-.078.401a2.33 2.33 0 0 1-2.722 1.84z" class="E"/><path fill="#a02724" d="M461.009 210.968s-4.244 7.695-8.268 11.153c2.187 2.643 6.552 2.128 6.552 2.128l1.716-13.281z"/><g class="H"><path d="M465.044 234.067c.043.029.094.048.149.056 6.366.793 11.299-3.33 11.506-3.507a.36.36 0 0 0 .042-.502c-.128-.15-.353-.167-.502-.04-.05.041-4.911 4.096-10.956 3.344-.196-.025-.375.113-.397.309a.35.35 0 0 0 .158.34zm20.875-32.124c.212.096.464.087.674-.044.334-.209.432-.648.225-.981-3.171-5.041-8.103-5.179-8.313-5.184-.392-.005-.714.306-.722.699a.71.71 0 0 0 .695.725c.179.005 4.388.151 7.134 4.517.078.122.186.213.307.268z"/><ellipse transform="matrix(.9858 .1679 -.1679 .9858 42.1391 -76.477)" cx="473.237" cy="210.907" rx="2.262" ry="3.459"/><ellipse transform="matrix(.9858 .1678 -.1678 .9858 41.1785 -72.8805)" cx="451.946" cy="207.282" rx="2.262" ry="3.459"/><path d="M453.053 204.068l-4.302-2.074c0 .001 1.72 3.929 4.302 2.074zm21.293 3.626l-4.303-2.075s1.719 3.929 4.303 2.075zm-27.403-12.748c.231.105.512.082.728-.083 4.093-3.14 8.091-1.813 8.259-1.755.371.127.776-.067.906-.438s-.075-.779-.435-.904c-.198-.069-4.873-1.656-9.596 1.969a.71.71 0 0 0-.131.997c.074.096.168.167.269.214z"/></g><g class="B"><path d="M423.717 455.804s-.259-13.085 3.624-23.294h95.62s8.595 13.882 10.828 23.294H423.717z"/><use xlink:href="#E"/></g><use xlink:href="#E" class="F J"/><path d="M511.388 437.726h2.595c.515 0 .908-.268.873-.593l-1.215-11.12c-.036-.324-.488-.592-1.005-.592h-2.593c-.518 0-.91.268-.874.592l1.216 11.12c.036.325.487.593 1.003.593zm-77.232 0h2.593c.517 0 .911-.268.875-.593l-1.216-11.12c-.035-.324-.487-.592-1.004-.592h-2.593c-.518 0-.91.268-.874.592l1.216 11.12c.035.325.487.593 1.003.593zm38.616 0h2.593c.518 0 .909-.268.874-.593l-1.216-11.12c-.036-.324-.485-.592-1.003-.592h-2.593c-.517 0-.912.268-.876.592l1.218 11.12c.036.325.487.593 1.003.593z" class="B"/><path fill="#b65b52" d="M548.087 316.71l12.108 41.11 5.816 20.572 2.903 10.218.738 2.521.369 1.263.085.295.017.072c.013.066.01.047.004.07l-.3-.451c-.242-.328-.634-.913-1.68-1.716-.984-.796-2.985-1.684-4.894-1.731-1.897-.073-3.199.44-3.868.764-1.313.704-1.186.879-1.084.75.159-.115.494-.456.851-.896.728-.885 1.559-2.101 2.361-3.392 1.622-2.616 3.195-5.584 4.704-8.615 3.095-6.063 5.906-12.494 8.731-18.942l8.206-19.601 8.061-19.766 11.659 3.479c-3.021 14.241-6.569 28.22-10.921 42.169a293.22 293.22 0 0 1-7.294 20.928c-1.429 3.503-2.942 7.005-4.819 10.643-.956 1.83-1.985 3.681-3.358 5.699a29.04 29.04 0 0 1-2.555 3.253c-1.133 1.155-2.37 2.543-5.302 4.03-1.475.702-3.667 1.459-6.463 1.345-2.807-.071-5.667-1.341-7.357-2.679-1.755-1.352-2.722-2.64-3.453-3.716-.729-1.097-1.148-1.969-1.544-2.826-.171-.395-.356-.823-.488-1.18l-.336-.902-.478-1.288-.952-2.578-3.656-10.247-6.869-20.492a1009.19 1009.19 0 0 1-12.515-41.248l23.573-6.915z"/><use xlink:href="#F" class="B"/><use xlink:href="#F" opacity=".5" class="E"/><g class="I"><path d="M591.623 324.199l-5.096-22.468 21.174 11.172s.268 15.117-8.277 19.89l-7.801-8.594z"/><path d="M595.39 283.907l13.513 9.579-1.202 19.417-21.174-11.172z"/></g><path d="M216.01 170.868h147.911c12.053 0 21.31 9.86 20.571 21.913l-4.099 66.955c-.738 12.053-11.203 21.913-23.255 21.913H340.01l6.998 22.984-33.469-22.984H209.228c-12.052 0-21.309-9.86-20.57-21.913l4.099-66.955c.737-12.053 11.201-21.913 23.253-21.913z" class="B"/><path d="M350.367 205.939H225.27c-2.27 0-4.014-1.857-3.875-4.127h0c.139-2.27 2.111-4.128 4.38-4.128h125.097c2.271 0 4.014 1.858 3.875 4.128h0c-.139 2.271-2.11 4.127-4.38 4.127zm-74.042 24.447h-52.551c-2.271 0-4.014-1.857-3.876-4.127h0c.139-2.27 2.111-4.128 4.381-4.128h52.552c2.271 0 4.015 1.858 3.875 4.128h0c-.14 2.269-2.111 4.127-4.381 4.127zm44.912 24.446h-98.96c-2.27 0-4.014-1.857-3.875-4.127h0c.139-2.27 2.11-4.128 4.38-4.128h98.96c2.271 0 4.014 1.858 3.875 4.128h0c-.139 2.27-2.11 4.127-4.38 4.127zm-6.44-24.446h-20.673c-2.271 0-4.014-1.857-3.875-4.127h0c.139-2.27 2.109-4.128 4.38-4.128h20.672c2.271 0 4.015 1.858 3.875 4.128h0c-.137 2.269-2.109 4.127-4.379 4.127z" class="E"/><use xlink:href="#G" class="B"/><g opacity=".5" class="J"><use xlink:href="#G"/></g><path d="M383.078 102.161c-.502 2.356-2.73 4.042-5.113 4.042h-4.759l.116-2.476c.187-3.056.845-5.569 1.976-7.54s3.286-4.188 6.469-6.653l5.73-4.841c.984-1.208 1.522-2.538 1.612-3.992.123-2.021-.579-3.752-2.104-5.193s-3.658-2.162-6.391-2.162c-2.637 0-4.889.753-6.754 2.255-1.083.872-1.997 2.011-2.739 3.415-1.051 1.988-3.142 3.234-5.303 2.965h0c-3.338-.417-5.123-4.075-3.36-7.074 1.04-1.768 2.434-3.385 4.183-4.851 3.675-3.08 8.346-4.62 14.013-4.62 5.964 0 10.611 1.559 13.944 4.676s4.872 6.745 4.618 10.885c-.141 2.292-.921 4.46-2.338 6.505s-4.355 4.83-8.809 8.353c-2.305 1.825-3.757 3.291-4.354 4.398-.255.476-.468 1.111-.637 1.908zm-10.427 13.108l.035-.575a5.29 5.29 0 0 1 5.206-4.905h.576c2.709 0 4.771 2.196 4.604 4.905l-.035.575a5.29 5.29 0 0 1-5.206 4.906h-.575c-2.709 0-4.771-2.196-4.605-4.906z" class="E"/><defs ><path id="B" d="M667.902 469.12H321.185c-4.614 0-8.151-3.775-7.859-8.391l14.284-226.605c.291-4.614 4.304-8.389 8.917-8.389h346.719c4.614 0 8.151 3.775 7.859 8.389L676.82 460.729c-.29 4.616-4.304 8.391-8.918 8.391z"/><path id="C" d="M416.09 290.411c-9.703 2.471-16.492 42.402-16.492 42.402l26.74 18.185s25.639-40.283 18.174-50.953c-7.775-11.109-14.262-13.239-28.422-9.634z"/><path id="D" d="M416.09 290.411s-11.216 3.951 11.251 142.099h95.62c-1.605-38.917-1.65-62.916 16.951-142.78 0 0-20.036-4.358-40.604-5.35-16.093-.776-29.274-1.29-43.42.001-18.65 1.701-39.798 6.03-39.798 6.03z"/><path id="E" d="M524.392 426.897l.763 8.56c.335.663-.449 1.341-1.556 1.341H426.87c-.862 0-1.576-.421-1.631-.964l-.862-8.559c-.06-.594.688-1.095 1.631-1.095h96.829c.711.001 1.34.289 1.555.717z"/><path id="F" d="M539.912 289.729c9.58 2.912 24.242 40.511 24.242 40.511l-37.167 26.571s-16.712-32.146-12.687-44.529c4.195-12.896 14.679-25.878 25.612-22.553z"/><path id="G" d="M421.961 50.533H341.32c-9.377 0-17.52 7.672-18.094 17.05l-3.189 52.1c-.574 9.378 6.628 17.051 16.006 17.051h13.33l-7.635 17.884 28.232-17.884h46.714c9.378 0 17.521-7.673 18.095-17.051l3.189-52.1c.574-9.378-6.629-17.05-16.007-17.05z"/></defs></svg>