<svg xmlns="http://www.w3.org/2000/svg" xmlns:xlink="http://www.w3.org/1999/xlink" viewBox="0 0 500 500" xmlns:v="https://vecta.io/nano"><style><![CDATA[.q{fill:#fff}.r{fill:#ebebeb}.s{enable-background:new}.t{opacity:.15}.u{fill:#db965f}.v{fill:#334e85}.w{fill:#2f3135}.x{stroke-miterlimit:10}]]></style><g fill="none" stroke="#4e71a4" stroke-width=".75" stroke-dasharray="4"><path d="M156.4 345.7c-41.5 9.8-84.4-11.8-100.9-50.6-16.9-39.7-1.7-86.7 35.8-109.2-24.6-2.8-45.2-18.1-52.8-39.5-9.5-26.7 5.8-50.6 8.5-54.9 9.5-14.8 22.3-22.3 28.7-25.4" class="x"/><circle cx="93.6" cy="185.3" r="2"/></g><path d="M32.8 321.4c2.7 1.7 5.8 2.9 9.1 3.7 8.5 2 17 .3 23.8-4.1a30.87 30.87 0 0 0 13.7-19.3c3.9-16.8-6.6-33.6-23.4-37.5s-33.6 6.6-37.5 23.4a31.26 31.26 0 0 0 14.3 33.8z" class="r"/><path d="M39.4 291.1c.1 5.3 4.4 9.5 9.6 9.4 5.3-.1 9.5-4.4 9.4-9.6-.1-5.3-4.4-9.5-9.6-9.4-5.3 0-9.4 4.3-9.4 9.6zm-6.6 26.3v3.9c2.7 1.7 5.8 2.9 9.1 3.7 8.5 2 17 .3 23.8-4.1V317c-.1-9.1-7.5-16.3-16.6-16.2-9.2.1-16.4 7.6-16.3 16.6z" class="q"/><path d="M380.5 194.6c1.8 1.1 3.8 1.9 5.9 2.4 5.6 1.3 11.1.2 15.6-2.7 4.4-2.8 7.7-7.2 9-12.7 2.5-11-4.3-22-15.3-24.6s-22 4.3-24.6 15.3c-2 9 2 17.9 9.4 22.3z" class="r"/><path d="M384.8 174.8c0 3.4 2.9 6.2 6.3 6.2s6.2-2.9 6.2-6.3-2.9-6.2-6.3-6.2-6.2 2.8-6.2 6.3zm-4.3 17.2v2.6c1.8 1.1 3.8 1.9 5.9 2.4 5.6 1.3 11.1.2 15.6-2.7v-2.6c-.1-5.9-5-10.7-10.9-10.6s-10.7 5-10.6 10.9z" class="q"/><g opacity=".49"><path d="M172.4 131.5H20.2V27.4h152.3v104.1h-.1zm-151-1.2h149.9V28.6H21.4v101.7z" class="r"/><path d="M32.1,34.1c0,1.7-1.4,3-3,3s-3-1.4-3-3s1.4-3,3-3C30.7,31,32.1,32.4,32.1,34.1z" fill="#a6a6a6"/><path d="M44.5,34.1c0,1.7-1.4,3-3,3s-3-1.4-3-3s1.4-3,3-3C43.1,31,44.5,32.4,44.5,34.1z" class="r"/><linearGradient id="A" gradientUnits="userSpaceOnUse" x1="50.763" y1="34.097" x2="56.826" y2="34.097"><stop offset="0" stop-color="#f17972"/><stop offset="1" stop-color="#f69b61"/></linearGradient><path d="M56.8,34.1c0,1.7-1.4,3-3,3c-1.7,0-3-1.4-3-3s1.4-3,3-3C55.5,31,56.8,32.4,56.8,34.1z" fill="url(#A)"/><path d="M20.8 39.4h151.1v1.2H20.8z" class="r"/></g><path d="M43.592 171.327l62.321-8.498 5.39 39.533-62.321 8.498z" class="r"/><g class="q"><path d="M105.9 162.8l-6.6 8.1-6.7 8-7.1 8.2c-.1.1-.1.2-.2.3l-6.3 7.2-.3.3-.4-.2-8-5.3c-.1-.1-.2-.1-.3-.2l-9.1-6c-2.9-1.9-5.8-3.9-8.6-5.9l-8.6-6c3 1.7 5.9 3.5 8.8 5.3l8.8 5.4 9.8 6.2h0c2.4 1.6 4.9 3.1 7.3 4.7 1.9-2.2 3.8-4.3 5.8-6.5h0l7.7-8.6 7-7.6 7-7.4z"/><path d="M71.2 189c0 .1-.1.1 0 0-.4.4-.6.7-.9 1l-4.3 4.5-5.4 5.2-5.6 5-5.9 4.8 5.2-5.5 5.4-5.2 5.7-5 4.7-3.8c.2-.4.6-.6 1.1-1-.1.1 0 .1 0 0zm39.8 12.1l-7-3-6.8-3.3-6.7-3.6-5.3-3.1c-.4-.2-.7-.5-1.1-.7 0 0-.1 0-.1-.1h.1c.4.2.9.4 1.3.5l5.5 2.4 6.8 3.3 6.7 3.6 6.6 4z"/></g><path d="M289.173 316.589l14.555-61.5 96.921 22.938-14.555 61.5z" class="r"/><g class="q"><path d="M400.7 278l-14.5 8.2-14.5 7.9-15.2 8.1c-.2.1-.3.2-.5.3l-13.5 7-.7.3-.4-.6-8.9-12.4c-.1-.1-.2-.3-.3-.4l-10-14.1-9.4-13.6-9.3-13.8c3.4 4.2 6.7 8.5 10 12.8l9.9 13c3.7 4.8 7.3 9.7 10.9 14.7h0l8.1 11.1 12.2-6.3h0l16.3-8.2 14.7-7.2c5.3-2.2 10.2-4.6 15.1-6.8z"/><path d="M334.4 297c-.1 0-.1.1-.1.1l-1.8.9-8.9 4.2c-3.6 1.6-7.3 3.1-11 4.6-3.7 1.4-7.4 2.9-11.2 4.2s-7.6 2.6-11.4 3.7c3.6-1.9 7.2-3.6 10.8-5.2l11-4.6c3.7-1.5 7.5-2.9 11.2-4.2 3-1.1 6-2.1 9.1-3l2.1-.6c.1-.1.1-.1.2-.1zm52 40.5c-3-2.7-5.8-5.5-8.6-8.4s-5.5-5.8-8.2-8.8c-2.6-3-5.3-6-7.8-9.1-2.1-2.5-4.1-5-6-7.7-.4-.6-.8-1.1-1.2-1.7l-.1-.1.1.1c.6.5 1.1 1 1.6 1.5 2.3 2.2 4.6 4.5 6.8 6.7 2.8 2.9 5.5 5.8 8.1 8.8s5.3 6 7.8 9.1c2.6 3.2 5.1 6.3 7.5 9.6z"/></g><path d="M322.2 56.8h57.2v36.3h-57.2z" class="r"/><g class="q"><path d="M379.5 56.8l-7 6.5-7.1 6.4-7.4 6.5-.2.2-6.6 5.7-.3.3-.3-.3-6.6-5.7c-.1-.1-.2-.1-.2-.2l-7.4-6.6-7.1-6.4-7-6.5 7.3 5.8 7.3 6c2.7 2.2 5.4 4.5 8 6.8h0l6 5.1 6-5.1h0l8-6.8 7.2-6c2.5-1.8 4.9-3.8 7.4-5.7z"/><path d="M344.9 76.2h0l-1 .8-4.4 3.5-5.6 4.1-5.7 3.8-5.9 3.6c1.7-1.5 3.5-2.9 5.4-4.3l5.6-4.1 5.7-3.8 4.7-2.9c.4-.3.8-.5 1.2-.7h0zm34.4 15.7l-5.9-3.6-5.7-3.8-5.6-4.1-4.4-3.5c-.3-.3-.6-.5-.9-.8l-.1-.1s.1 0 .1.1l1.1.6 4.7 2.9 5.7 3.8 5.6 4.1 5.4 4.4z"/></g><path d="M322 41.4H125.9c-11 0-19.8 9-19.8 20.2v403.9c0 11.2 8.9 20.2 19.8 20.2H322c11 0 19.9-9.1 19.9-20.2V61.6c0-11.2-8.9-20.2-19.9-20.2zm7.5 411.5c0 10.6-8 19.2-17.8 19.2H136.2c-9.8 0-17.8-8.6-17.8-19.2v-376c0-21.7 8-22.7 17.8-22.7h35.2c2 0 3.7 2.3 3.7 5.2v1.2c0 6.7 3.7 6.8 8.2 6.8h81.3c4.6 0 8.2 0 8.2-6.8v-1.2c0-2.9 1.6-5.2 3.7-5.2h35.2c9.8 0 17.8 2.9 17.8 22.7v376h0z" class="v"/><path d="M329.5 76.4v376c0 10.6-8 19.2-17.8 19.2H136.2c-9.8 0-17.8-8.6-17.8-19.2v-376c0-21.7 8-22.7 17.8-22.7h35.2c2 0 3.7 2.3 3.7 5.2v1.2c0 6.7 3.7 6.8 8.2 6.8h81.3c4.6 0 8.2 0 8.2-6.8v-1.2c0-2.9 1.6-5.2 3.7-5.2h35.2c9.8 0 17.8 2.9 17.8 22.7z" class="q"/><path d="M329.5 76.4v25.4H118.4V76.4c0-21.7 8-22.7 17.8-22.7h35.2c2 0 3.7 2.3 3.7 5.2v1.2c0 6.7 3.7 6.8 8.2 6.8h81.3c4.6 0 8.2 0 8.2-6.8v-1.2c0-2.9 1.6-5.2 3.7-5.2h35.2c9.8 0 17.8 2.9 17.8 22.7z" fill="#4e71a4" stroke="#4e71a4" class="x"/><path d="M235 58.2h-22.2c-.8 0-1.4-.6-1.4-1.4h0c0-.8.6-1.4 1.4-1.4H235c.8 0 1.4.6 1.4 1.4h0c0 .8-.6 1.4-1.4 1.4zm-97.8 29.6l-6.2-5.9 6.2-5.8 1 1-5.1 4.8 5.1 4.8zm172 .4H305v-1.5c0-.1-.1-.2-.2-.3-.2-.1-.3-.2-.5-.3-.1-.1-.3-.1-.3 0l-1.3.7-2.1-3.6 1.3-.7c.1-.1.2-.2.2-.3v-.3-.3c0-.1 0-.3-.2-.3l-1.3-.7 2.1-3.6 1.3.7c.1.1.2.1.3 0 .2-.1.3-.2.5-.3.1-.1.2-.2.2-.3v-1.5h4.2v1.5c0 .1.1.2.2.3.2.1.3.2.5.3.1.1.2.1.3 0l1.3-.7 2.1 3.6-1.3.7c-.1.1-.2.2-.2.3v.3.3c0 .1 0 .3.2.3l1.3.7-2.1 3.6-1.3-.7c-.1-.1-.2-.1-.3 0s-.3.2-.5.3c-.1.1-.2.2-.2.3v1.5h0zm-3.3-.9h2.4v-.6c0-.5.3-.9.7-1.1.1-.1.3-.1.4-.2a1.05 1.05 0 0 1 1.3 0l.5.3 1.2-2.1-.5-.3c-.4-.2-.6-.7-.6-1.1V82v-.2c0-.5.2-.9.6-1.1l.5-.3-1.2-2.1-.5.3c-.4.2-.9.2-1.3 0a.76.76 0 0 0-.4-.2c-.4-.2-.7-.6-.7-1.1v-.6h-2.4v.6c0 .5-.3.9-.7 1.1-.1.1-.3.1-.4.2a1.05 1.05 0 0 1-1.3 0l-.5-.3-1.2 2.1.5.3c.4.2.6.7.6 1.1v.2.2c0 .5-.2.9-.6 1.1l-.5.3 1.2 2.1.5-.3c.4-.2.9-.2 1.3 0a.76.76 0 0 0 .4.2c.4.2.7.6.7 1.1v.6h0zm1.2-2.2c-1.7 0-3.2-1.4-3.2-3.2 0-1.7 1.4-3.2 3.2-3.2 1.7 0 3.2 1.4 3.2 3.2-.1 1.8-1.5 3.2-3.2 3.2zm0-5.4c-1.2 0-2.2 1-2.2 2.3s1 2.2 2.2 2.2 2.3-1 2.3-2.2c-.1-1.3-1.1-2.3-2.3-2.3z" class="q"/><g fill="#b7cef7"><path d="M318.6 395.7H130.2c-2.3 0-4.2-1.6-4.2-3.5v-79.8c0-1.9 1.9-3.5 4.2-3.5h188.4c2.3 0 4.2 1.6 4.2 3.5v79.8c0 1.9-1.9 3.5-4.2 3.5zm0-102.9H130.2c-2.3 0-4.2-1.7-4.2-3.8v-86.6c0-2.1 1.9-3.8 4.2-3.8h188.4c2.3 0 4.2 1.7 4.2 3.8V289c0 2.1-1.9 3.8-4.2 3.8z" opacity=".44" class="s"/><path d="M249.4 443.9H129.8c-2.1 0-3.8-2.3-3.8-5.2v-18.4c0-2.9 1.7-5.2 3.8-5.2h119.6c2.1 0 3.8 2.3 3.8 5.2v18.4c.1 2.9-1.6 5.2-3.8 5.2z"/></g><linearGradient id="B" gradientUnits="userSpaceOnUse" x1="255.8" y1="429.25" x2="322.8" y2="429.25"><stop offset="0" stop-color="#f17972"/><stop offset="1" stop-color="#f69b61"/></linearGradient><path d="M317.5 444.5h-56.4c-2.9 0-5.3-2.5-5.3-5.5v-19.5c0-3.1 2.4-5.5 5.3-5.5h56.4c2.9 0 5.3 2.5 5.3 5.5V439c0 3-2.4 5.5-5.3 5.5z" fill="url(#B)"/><path d="M278.1 431.2c.5.3 1.2.5 1.9.5 1.1 0 1.7-.5 1.7-1.2s-.4-1.1-1.5-1.5c-1.3-.4-2.1-1-2.1-2.1s1-2 2.6-2c.8 0 1.4.2 1.8.4l-.3.8c-.3-.1-.8-.3-1.5-.3-1.1 0-1.5.6-1.5 1.1 0 .7.5 1 1.6 1.4 1.4.5 2.1 1.1 2.1 2.1 0 1.1-.9 2.1-2.8 2.1-.8 0-1.6-.2-2.1-.5l.1-.8zm6.7-1.3c0 1.3.9 1.8 2 1.8.8 0 1.2-.1 1.6-.3l.2.7c-.4.2-1 .3-1.9.3-1.8 0-2.9-1.1-2.9-2.6s1-2.8 2.7-2.8c1.9 0 2.4 1.5 2.4 2.5v.4h-4.1 0zm3.1-.7c0-.6-.3-1.5-1.5-1.5-1.1 0-1.5.9-1.6 1.5h3.1zm2.3-.7v-1.4h.9l.1.9h0c.3-.5 1-1 1.9-1 .8 0 2.1.4 2.1 2.2v3.1h-1.1v-3c0-.8-.4-1.5-1.3-1.5a1.41 1.41 0 0 0-1.4 1c0 .1-.1.3-.1.4v3.2h-1.1v-3.9h0zm11.7-3.9v6.3 1.4h-.9v-.9h0c-.3.6-1 1-2 1-1.4 0-2.5-1.1-2.5-2.7 0-1.7 1.2-2.8 2.6-2.8.9 0 1.5.4 1.8.8h0v-3.1h1 0zm-1 4.6v-.4c-.2-.6-.7-1.1-1.5-1.1-1.1 0-1.7.9-1.7 2s.6 1.9 1.7 1.9c.7 0 1.4-.4 1.5-1.1v-.4-.9z" class="q s"/><path d="M146.6 428.6h-6.1v-5.5h-2.1v5.5h-6.1v1.9h6.1v5.5h2.1v-5.5h6.1z" class="q"/><g fill="#b7cef7"><path d="M301.1 219.1H141.8c-.9 0-1.7-.7-1.7-1.5v-6.5c0-.8.8-1.5 1.7-1.5h159.3c.9 0 1.7.7 1.7 1.5v6.5c0 .9-.7 1.5-1.7 1.5zM216.5 240H141c-.5 0-.9-.7-.9-1.6v-6.2c0-.9.4-1.6.9-1.6h75.5c.5 0 .9.7.9 1.6v6.2c0 .9-.4 1.6-.9 1.6zm83.8 0h-78.7c-.5 0-.9-.7-.9-1.6v-6.2c0-.9.4-1.6.9-1.6h78.7c.5 0 .9.7.9 1.6v6.2c0 .9-.4 1.6-.9 1.6zM189 260.9h-48.4c-.3 0-.5-.7-.5-1.5v-6.5c0-.8.2-1.5.5-1.5H189c.3 0 .5.7.5 1.5v6.5c0 .8-.2 1.5-.5 1.5z"/><use xlink:href="#P"/><use xlink:href="#P" x="56.2"/><path d="M222.6 281.8h-79c-.9 0-1.6-.6-1.6-1.4v-6.6c0-.8.7-1.4 1.6-1.4h79c.9 0 1.6.6 1.6 1.4v6.6c0 .7-.8 1.4-1.6 1.4zm-79.3-138.6h38.2c2.8 0 5.1 2.1 5.1 4.6v34.5c0 2.5-2.3 4.6-5.1 4.6h-38.2c-2.8 0-5.1-2.1-5.1-4.6v-34.5c0-2.5 2.3-4.6 5.1-4.6zm-7.2-27.9h65c.7 0 1.3.6 1.3 1.3v12.7c0 .7-.6 1.3-1.3 1.3h-65c-.7 0-1.3-.6-1.3-1.3v-12.7c0-.7.6-1.3 1.3-1.3zm70.6 27.9h37.2c3.1 0 5.6 2.3 5.6 5.1v33.5c0 2.8-2.5 5.1-5.6 5.1h-37.2c-3.1 0-5.6-2.3-5.6-5.1v-33.5c0-2.8 2.5-5.1 5.6-5.1zm63.9 0h35.1c3.7 0 6.6 2.7 6.6 6v31.6c0 3.3-3 6-6.6 6h-35.1c-3.7 0-6.6-2.7-6.6-6v-31.6c0-3.3 3-6 6.6-6zm24 182.6H151.1a1.54 1.54 0 0 1-1.5-1.5v-6.5a1.54 1.54 0 0 1 1.5-1.5h143.5a1.54 1.54 0 0 1 1.5 1.5v6.5a1.54 1.54 0 0 1-1.5 1.5zm-76.2 20.4h-68c-.4 0-.8-.7-.8-1.6v-6.2c0-.9.3-1.6.8-1.6h68c.4 0 .8.7.8 1.6v6.2c-.1.9-.4 1.6-.8 1.6zm75.4-.6H223c-.4 0-.8-.7-.8-1.6v-6.2c0-.9.4-1.6.8-1.6h70.9c.4 0 .8.7.8 1.6v6.2c-.1.8-.5 1.6-.9 1.6zm-100.2 21H150c-.2 0-.4-.7-.4-1.5v-6.5c0-.8.2-1.5.4-1.5h43.6c.2 0 .4.7.4 1.5v6.5c0 .8-.2 1.5-.4 1.5zm50 0H200c-.2 0-.4-.7-.4-1.5v-6.5c0-.8.2-1.5.4-1.5h43.6c.2 0 .4.7.4 1.5v6.5c0 .8-.2 1.5-.4 1.5zm50.6 0h-43.6c-.2 0-.4-.7-.4-1.5v-6.5c0-.8.2-1.5.4-1.5h43.6c.2 0 .4.7.4 1.5v6.5c0 .8-.2 1.5-.4 1.5zM222.1 387H151c-.8 0-1.4-.6-1.4-1.4V379c0-.8.6-1.4 1.4-1.4h71.1c.8 0 1.4.6 1.4 1.4v6.6c.1.7-.6 1.4-1.4 1.4z"/></g><linearGradient id="C" gradientUnits="userSpaceOnUse" x1="13.699" y1="268.9" x2="162.4" y2="268.9"><stop offset="0" stop-color="#f17972"/><stop offset="1" stop-color="#f69b61"/></linearGradient><path d="M32 211.2h112.1c10.1 0 18.3 8.2 18.3 18.3V290c0 10.1-8.2 18.3-18.3 18.3h-26.8l-.2 18.3-20.2-18.3H32c-10.1 0-18.3-8.2-18.3-18.3v-60.5c-.1-10.1 8.1-18.3 18.3-18.3z" fill="url(#C)"/><path d="M116.2 237.2h-84c-.6 0-1.1-1.2-1.1-2.7s.5-2.7 1.1-2.7h84c.6 0 1.1 1.2 1.1 2.7s-.5 2.7-1.1 2.7zm23.2.1h-13.3c-.6 0-1.1-1.2-1.1-2.7s.5-2.7 1.1-2.7h13.3c.6 0 1.1 1.2 1.1 2.7s-.5 2.7-1.1 2.7zm-84 21.4h84c.6 0 1.1-1.2 1.1-2.7s-.5-2.7-1.1-2.7h-84c-.6 0-1.1 1.2-1.1 2.7-.1 1.5.4 2.7 1.1 2.7zm-23.2 22.2h84c.6 0 1.1-1.2 1.1-2.7s-.5-2.7-1.1-2.7h-84c-.6 0-1.1 1.2-1.1 2.7s.5 2.7 1.1 2.7zm0-22.1h13.3c.6 0 1.1-1.2 1.1-2.7s-.5-2.7-1.1-2.7H32.2c-.6 0-1.1 1.2-1.1 2.7s.5 2.7 1.1 2.7z" class="q"/><path d="M343.1 58.2h97.4a15.88 15.88 0 0 1 15.9 15.9v52.6a15.88 15.88 0 0 1-15.9 15.9h-23.3l-.2 15.9-17.5-15.9h-56.4a15.88 15.88 0 0 1-15.9-15.9V74.1a15.88 15.88 0 0 1 15.9-15.9z" fill="#3fb1cf"/><path d="M416.3 80.8h-73c-.5 0-1-1.1-1-2.4s.4-2.4 1-2.4h73c.5 0 1 1.1 1 2.4 0 1.4-.5 2.4-1 2.4zm20.2.1H425c-.5 0-1-1.1-1-2.4s.4-2.4 1-2.4h11.5c.5 0 1 1.1 1 2.4s-.5 2.4-1 2.4zm-73 18.6h73c.5 0 1-1.1 1-2.4s-.4-2.4-1-2.4h-73c-.5 0-1 1.1-1 2.4s.4 2.4 1 2.4zm-20.2 19.3h73c.5 0 1-1.1 1-2.4s-.4-2.4-1-2.4h-73c-.5 0-1 1.1-1 2.4.1 1.3.5 2.4 1 2.4zm0-19.2h11.5c.5 0 1-1.1 1-2.4s-.4-2.4-1-2.4h-11.5c-.5 0-1 1.1-1 2.4.1 1.3.5 2.4 1 2.4z" class="q"/><path d="M381.6 449.8s-2.1 17.7 0 21.7l-15.4 2.9 4.6-29 10.8 4.4z" class="u"/><path d="M381.1 482.7s12.7 3.2 22.4.6c1.4-.4 2.3-1.9 2-3.4-.4-1.8-2-4-7.2-4.9 0 0-13.9-6.2-17.8-11.2 0 0-8 4.1-12.8.9 0 0-3.6 2.7-4.2 8-.4 3.9 2.3 7.4 6 7.8 3.9.7 9.1 1.4 11.6 2.2z" fill="#040c2b"/><path d="M361.2 447.8s-2.1 17.7 0 21.7l-15.4 2.9 4.6-29 10.8 4.4z" class="u"/><path d="M360.9 482.7s12.7 3.2 22.4.6c1.4-.4 2.3-1.9 2-3.4-.4-1.8-2-4-7.2-4.9 0 0-13.9-6.2-17.8-11.2 0 0-8.4 3.2-13.2 0 0 0-3.2 3.7-3.8 9-.4 3.9 2.3 7.4 6 7.8 4 .6 9.2 1.3 11.6 2.1z" fill="#040c2b"/><path d="M365.2 316.4l9.9 66-6 68.8 3.1.5 12.6 2 11.8-66.4c1.2-6.8 1.8-13.7 1.7-20.6l-.9-58.2-32.7 4.7.5 3.2z" fill="#081956"/><path d="M375 382.4l-6 68.8 3.1.5 11.1-67.8 2.2-67.5h-20.2z" class="s t"/><path d="M351.3 310.7s-4.8 11.3-2.5 39.1l1.9 35.1-3.8 68.9 16.6 1 11.3-58.5c2-10.6 3.1-21.4 3.3-32.2l.8-57.3-27.6 3.9z" fill="#081956"/><path d="M393.2 276.4l9.8 19.4.9 1.7c.9 1.7 2.9 2.3 4.6 1.6l38.1-17.1c4.8-1.1 7.6-3.1 9.2-4.9 1.5-1.6 2.1-3.9 1.5-6-1.5-5.7-4.3-5.6-4.3-5.6-4.3-1-7.4 2.1-8.8 3.4l-.3.3 1.4-2.8c.5-1-.1-2.1-1.2-2.3-4 5-4.9 9.6-4.9 9.6h-.1l-27.3 12-1-2.6-3.9-10.5-5.4 1.5-2.6.7-5.7 1.6z" class="u"/><path d="M359.9 246.6l.1 12.4 18.5 3.4 10.8-5.5-4.7-6-2.6-3.3c-.5-.7-.7-1.5-.6-2.4l2.3-14.3-18.1-8.1 1.5 11.4.3 1.9c.6 6-7.5 10.5-7.5 10.5z" fill="#c9885b"/><path d="M365.7 222.7l1.7 12.9c6.3 11.4 14.3 14.1 17.3 15.2l-2.6-3.3c-.5-.7-.7-1.5-.6-2.4l2.3-14.3-18.1-8.1z" class="s t"/><path d="M361.5 225l2.7 5.1c2.7 3.2 4.2 8 6.5 9.8 6.7 5.1 14.7 3.5 14.7 3.5 2 .1 4.1-3.6 5.1-6.2 2.9-7.2-2.6-22.7-2.6-22.7l-21 2.8-5.4 7.7z" class="u"/><path d="M361.9 227.7c1.3 8.7 5.4 7.7 5.4 7.7l-.4-3.8-2.3-2.7c-3.2-5.9 1.3-5.7 1.3-5.7 3.6.6 4 5.1 4 5.1l1.2-.1c.7-1.4.4-5.7.4-5.7 7.4-11.2 18.6-1.8 18.6-1.8 7.3-6.9.3-10.2.3-10.2.1-8.7-8-6-8-6s-6.2-4.3-9.1-.8c0 0-5.1.3-6.3 5.7 0 0-4.7-.4-5.6 4.5 0 0-.1.2-.3.5-1.8 3.4-1.9 7.5-.1 11 .4.7.8 1.6.9 2.3z"/><path d="M399.4 288.6l3.6-1.8 7.5-3.7 1.6-.8c-7-22.8-11.7-27-13.7-27.7-.7-.2-1.1 0-1.1 0l-6.1 22.3 8.2 11.7z" class="r"/><path d="M392.8 277.1l9.3 17.3-3.5-32.1-2.3-1.3-2.3-3.1c-.7-.2-4.2.2-4.2.2l-4.2 11.3 7.2 7.7z" class="s t"/><path d="M343.7 280.8l.2 11.6.1 5.2.2 9.1.1 3.7v1.5l.1 3.7.1 2.7v1.2l-.1 5.2-.1 4.5 57-2.3-.2-2.4-.4-5.2-.3-3.7-.4-3.9-.1-1.2-.4-4-.8-8.9-.4-4.7v-.5h0l.4-12.8.2-5.2.3-10 .2-5.2.1-2.9a1.78 1.78 0 0 0-1-1.6l-11.8-5.3-.5-.2-4.3-1.9c1.6 4.3 0 6.7-2.1 7.9-1 .6-2 .9-3.1 1h-.8c-1.1 0-2.2-.3-3.2-.7-12.5-6-9.8-11.2-9.8-11.2l-3.8 2.6-.6.4-13.6 9.2-.1 2.7-.3 5.2-.5 10-.1 2.4-.1 2.7v.9c-.1.2-.1.3-.1.4z" class="r"/><path d="M344.6 264.4h54.6l.1-5.2h-54.5zm-.8 15.2h54.9l.2-5.2h-54.8l-.2 2.5zm.2 12.8l.1 5.2h54.7l-.4-4.7v-.5H344zm.2 14.3l.1 3.8v1.4l55.7-.2-.1-1.2-.4-4zm.2 18l56.7-.2-.4-5.2-56.3.2z" class="q"/><path d="M343.7 280.7l.8 37.6 2.4.2 5.4-42.2-8.4.6z" class="s t"/><path d="M282.1 269.1s-.9 5.8 12.3 11.3L334 307c4.6 3.1 9.2 1.5 10.5-3.2l5.5-18.6-13.3-12.4-2.5 19.9-29.8-18.2-1.1-.7s-.2-4.4-3.5-9.8c-1.1-.1-1.9.9-1.5 1.9l1 2.9s-.1-.1-.3-.4c-1.2-1.4-6-6.7-10.6-6.5 0 .2-7.4 1-6.3 7.2z" class="u"/><path d="M345.7 256.5s-8.3-.2-11.4 29.4l14.4 5.5c.1 0 11.2-33-3-34.9z" class="r"/><path d="M374.7 258c1.1-.3 1.3-1.5 1.3-1.6-.2.7-.8 1.3-1.3 1.6z" class="s t"/><path d="M480.5 221.1c9 16.3 13.9 30.8 11.1 32.4-2.8 1.5-12.4-10.4-21.3-26.8-9-16.3-13.9-30.8-11.1-32.4s12.3 10.4 21.3 26.8zm9.2 21.8c-2.1-6-5.6-13.7-9.9-21.5s-8.8-14.9-12.8-19.9c-4.2-5.3-6.6-6.8-7.4-6.3-.8.4-.9 3.2 1.4 9.6 2.1 6 5.6 13.7 9.9 21.5s8.8 14.9 12.8 19.9c4.2 5.3 6.6 6.8 7.4 6.3.8-.4.9-3.2-1.4-9.6z" class="q"/><path d="M491.1 252.5c-.8.4-3.2-1-7.4-6.3-4-5-8.5-12.1-12.8-19.9s-7.8-15.5-9.9-21.5c-2.2-6.4-2.1-9.2-1.4-9.6.8-.4 3.2 1 7.4 6.3 4 5 8.5 12.1 12.8 19.9s7.8 15.5 9.9 21.5c2.3 6.4 2.2 9.2 1.4 9.6z" fill="#829cf8"/><path d="M470.3 226.8c-8.9-16.2-13.9-30.6-11.2-32.3l-.2-.3-3.3 8.1c-4.6 11.1-11.2 21.2-19.4 29.7l-3.8 3.9c-4.7 7.4.9 17.8 9.7 17.8l6.6-1.6c9.8-2.4 20.1-2.6 30.2-.7l10.7 2c-3.9-2.3-11.8-12.9-19.3-26.6z" fill="#acbcf8"/><path d="M491.6 253.6h0 0 0z" fill="#c5d9f6"/><path d="M453.6 277.2l-4.3 2.4c-.4.2-1 0-1.5-.5-1.4-1.6-4.6-5.5-9-12.9-.7-1.1-1.4-2.3-2.1-3.5l5.1-2.8s.9 1.4 2.4 3.4c2.4 3.3 6.2 8.4 9.2 11.3.8.7.9 2.2.2 2.6z" class="v"/><path d="M444.1 263.2l-5.4 2.9-2.1-3.5 5.1-2.8c.1 0 1 1.4 2.4 3.4z" class="s t"/><path d="M431.831 258.474l9.118-5.002 3.8 6.926-9.118 5.002z" fill="#6a8ac4"/><path d="M431.882 258.541l9.118-5.002 1.924 3.507-9.118 5.002z" class="v"/><path d="M476.3 234.1h0l-9.1-16.6h0c3.9-2.1 8.8-.7 10.9 3.2l1.3 2.4c2.2 4 .8 8.9-3.1 11z" fill="#acbcf8"/><path d="M428 236c-5.5 3-8 9.4-6.1 14.9l-.5.3c-.3.2-.5.5-.5 1 0 .4.1.9.3 1.4.5 1 1.5 1.5 2.1 1.1l.5-.3c3.6 4.6 10.3 5.9 15.8 2.9l9.3-5.1-11.7-21.3-9.2 5.1z" class="v"/><path d="M421.8 251l1.9 3.5-.4.2c-.6.4-1.6-.1-2.1-1.1-.3-.5-.4-1-.3-1.4 0-.4.2-.8.5-1l.4-.2z" class="s t"/><path d="M439.2 273.7l1 1.7 3.8-3.6c-.2.2-.2-2.6-.2-2.6l1.4-2.8c.5-1-.1-2.1-1.2-2.3-3.8 5-4.8 9.6-4.8 9.6h0zm13.7-8.3s-4.9 8.4 3.3 10.7l-3.3-10.7zm-154.7.6l1 2.9.8 5c1.2 2.3 1.9 2.9 1.9 2.9l2.1.8.3-3-1.1-.7s-.2-4.4-3.5-9.8c-1-.1-1.8.9-1.5 1.9z" class="u"/><path d="M378 226.7c.1.7.7 1.3 1.2 1.2s.8-.8.6-1.5c-.1-.8-.7-1.3-1.2-1.2-.5 0-.8.7-.6 1.5zm8.5-1.7c.1.7.7 1.3 1.2 1.2s.8-.8.6-1.5c-.1-.8-.7-1.3-1.2-1.2s-.7.8-.6 1.5z" fill="#263238"/><path d="M383.6 226.8c1 1.6 2.2 3 3.6 4.3-.7.7-1.6 1-2.5 1l-1.1-5.3z" class="s t"/><path d="M375 223.4h-.2c-.2-.1-.2-.3-.1-.5h0a4.2 4.2 0 0 1 3.4-2.2c.2 0 .3.1.3.3s-.1.3-.3.3c-1.2.1-2.2.8-2.8 1.9-.1.2-.2.2-.3.2zm13-2.7h-.2c-1-.6-2.2-.7-3.4-.2-.2.1-.5 0-.5-.1h0c-.1-.2 0-.5.1-.5 1.3-.6 2.8-.5 4.1.2.2.1.2.3.1.5 0 .1-.1.1-.2.1h0zm-9.7 4.5l1.7-.9c.1.1-.6 1.6-1.7.9zm8.3-1.5l1.7-.9c0 .1-.7 1.6-1.7.9zm-2.5 13.4h1.1c.1 0 .1-.1.2-.2h0c0-.1-.2-.2-.3-.2-1.9.2-3.7-.6-4.9-2.2-.1-.1-.2-.1-.3-.1-.1.1-.1.2-.1.3 1.2 1.3 2.7 2.2 4.3 2.4z" fill="#263238"/><path d="M74.5 63L79 79l4.3-14.5 27.3-40z" fill="#f99b9b"/><path d="M86.6 66.5L79 79l4.3-14.5z" class="v"/><linearGradient id="D" gradientUnits="userSpaceOnUse" x1="217.072" y1="832.759" x2="262.141" y2="832.759" gradientTransform="matrix(0.8269 -0.5623 -0.5623 -0.8269 372.6232 875.9918)"><stop offset="0" stop-color="#f17972"/><stop offset="1" stop-color="#f69b61"/></linearGradient><path d="M83.3 64.5l27.3-40-9 51.4z" fill="url(#D)"/><linearGradient id="E" gradientUnits="userSpaceOnUse" x1="191.358" y1="845.774" x2="262.141" y2="845.774" gradientTransform="matrix(0.8269 -0.5623 -0.5623 -0.8269 372.6232 875.9918)"><stop offset="0" stop-color="#f17972"/><stop offset="1" stop-color="#f69b61"/></linearGradient><path d="M74.5 63L52 64.2l58.6-39.7z" fill="url(#E)"/><linearGradient id="F" gradientUnits="userSpaceOnUse" x1="36.93" y1="330.948" x2="65.069" y2="330.948"><stop offset=".341" stop-color="#98d400"/><stop offset="1" stop-color="#40a243"/></linearGradient><path d="M43.2 340.2c4.3 3.8 9.7 6.2 13.4 10.5 1.5 1.7 2.8 3.5 4.2 5.3 1 1.3 3.7 3.5 4.1 5.1.2.7.2-.3 0-1v-.1c-.4-3.3-.6-6.7-.8-10-.1-3.3.1-6.7-.1-10-.3-4.7-1.8-9.2-5.6-12.2-1.9-1.4-4.3-2.3-6-3.9-1.6-1.5-1-3.3 0-4.9.9-1.6 2-3.1 2.3-5 .4-2.1-.4-4.2-1.4-6-2.2-3.8-7.2-7.9-11.9-7.4-3.9.5-4.4 5-4.3 8.1s.4 6.1.4 9.2-.5 6.2-.5 9.4c-.1 5.4 2.3 9.4 6.2 12.9z" fill="url(#F)"/><linearGradient id="G" gradientUnits="userSpaceOnUse" x1="24.188" y1="363.265" x2="95.929" y2="363.265"><stop offset=".341" stop-color="#98d400"/><stop offset="1" stop-color="#40a243"/></linearGradient><path d="M83 389a62.14 62.14 0 0 1 4.2-8.1c2.3-3.5 4.9-7 6.4-11 1.6-4.1 1.3-8.4 1.5-12.7.1-3.1 1-6.3.8-9.4-.1-1.5-1-3.9-2.9-3.7-1.5.2-2.4 2.1-3 3.3-1 2.1-1.7 4.3-2.5 6.5l-.9 2.6c-.2.5-.9 1.7-1.6 1.5-1.1-.3-.1-4.8.1-5.6.8-4 2.1-7.8 2.2-11.9.3-6-.2-13.2-6.1-16.4-1.5-.9-3.5-1.4-4.9-.1s-1.8 3.5-2.1 5.3c-.7 5.5.6 10.8 2.4 16 1.5 4.3 3.2 8.8 3.3 13.4.1 4.4-2.2 8.4-3.3 12.6-1.7 6.7-1.4 10.2-1.4 12.4 0 2.7.1 5.4.3 8.1.2 2.5.4 5 .7 7.4.1.5.1 1 .2 1.5-1-2.3-1.3-4.9-2.1-7.2-1.4-4.1-3-8.1-4.4-12.2-1.1-3.4-2.2-6.8-3.6-10.1-1.4-3.1-3-6.3-5.6-8.6-1.6-1.4-3.4-2.2-5.5-2.1-1.3 0-2.5.5-3.8.8-1.6.4-2.8.3-4.1-.7-4.2-3.2-5.5-9-8.6-13.1-2.3-3.1-7.8-8.3-11.9-4.9-2.2 1.8-2.7 5.2-2.6 7.8.1 3.3 1.6 6.3 3.3 9 1.8 2.9 4.2 5.5 5.8 8.5 1 1.8 1.1 3.5 1 5.5-.1 1.9-.3 3.7.3 5.5 1.9 5.5 8 4.7 12.6 4.8 3.3.1 6.8.6 9.9 1.6 3.6 1.2 5.9 3.6 7.2 7.1.9 2.6 1.4 5.5 3.2 7.7.8 1 1.9 1.8 3.1 2.3 1.8.8 7.4 1.2 7.4.7.1-1.7.9-3.5 1.5-5.1 1.1-3.1 2.2-6.1 3.5-9z" fill="url(#G)"/><linearGradient id="H" gradientUnits="userSpaceOnUse" x1="77.667" y1="412.873" x2="109.783" y2="412.873"><stop offset="0" stop-color="#40a243"/><stop offset="1" stop-color="#98d400"/></linearGradient><path d="M108.8 388c-.5-3.1-.4-6.6-1.9-9.4-.1-.2-.4-.3-.6-.2-1.1.6-1.1 2.3-1.2 3.3-.1 1.7 0 3.5-.3 5.2-.4 3-1.1 6.2-2.2 9.1-1.2 3.3-3.5 5.1-6.8 6.1-2.1.7-4.2 1.2-5.9 2.6-1.6 1.3-2.7 3-3.5 4.8-2.2 4.9-3.2 10.4-4.3 15.7-.7 3.5-1.2 7.1-2.1 10.6s-1.8 7-2.3 10.5c-.1.2-.2.4-.2.5-.2.5.6.8.9.4 3.4-5.2 7.5-9.9 13.1-12.8 2.5-1.3 5.9-1.6 8-3.6 1.6-1.6 1.8-3.9 1.6-6-.3-2.8-1.6-5.1-3-7.4-.8-1.3-1.7-2.7-1.4-4.3.3-1.5 1.5-2.6 2.8-3.3 2.3-1.5 5.1-2.1 7-4.2 1.8-1.9 2.8-4.4 3-7 .5-3.5-.1-7.2-.7-10.6z" fill="url(#H)"/><linearGradient id="I" gradientUnits="userSpaceOnUse" x1="43.606" y1="420.377" x2="78" y2="420.377"><stop offset="0" stop-color="#40a243"/><stop offset="1" stop-color="#98d400"/></linearGradient><path d="M62.7 406c-3-3.9-6.6-7.2-10.7-9.9-2.2-1.4-7.3-4.3-8.3 0-.6 2.5 1.8 4.9 3.4 6.5 2.4 2.3 5.2 4.4 7.2 7.1-2.5.8-5.1 1-7.3 2.7-2.6 2.1-3.7 6-1.2 8.6 1.2 1.2 2.9 2 4.5 2.7 2 1 4.1 1.9 6.2 2.7 4.5 1.9 9 3.8 12.8 6.8 3.9 3.1 7.6 8.4 7.9 13.5 0 .5-.2 0 .1-.2.2.1.7-.1.7-.4-.1-7.6-1.4-14.8-4.5-21.7-2.9-6.4-6.5-12.9-10.8-18.4z" fill="url(#I)"/><path d="M52.3 335.6c1.6 3.4 3.4 6.8 5.2 10.1 1.8 3.2 3.5 6.4 4.8 9.8l5 12.6a123.37 123.37 0 0 1 4.7 13.3c2.5 8.8 4.4 17.9 5.3 27.1.5 4.6.7 9.3.6 14-.1 3.6-.5 7.3-.9 10.9-.4 3.8-.6 7.6-.3 11.4.3 3.2.8 6.9 3.2 9.2.5.4 1.2-.1.9-.7-2.9-6-2.8-12.5-2.2-19l.9-10.7c.2-4.6 0-9.2-.5-13.7-.8-9-2.6-17.8-5-26.5-1.2-4.5-2.7-8.8-4.4-13.1s-3.7-8.5-5.3-12.8c-3-7.8-7.5-14.7-11.5-22-.1-.6-.7-.3-.5.1h0z" fill="#292b30"/><path d="M77.5 399.5c.5-5.7 1-11.2 2.9-16.6.9-2.5 2-5 2.8-7.5.7-2.1 1.8-5 1.2-7.2-.1-.2-.4-.2-.5 0-.4 1.3-.3 2.7-.6 4s-.6 2.5-1 3.8c-.8 2.6-1.9 5.2-2.9 7.7-1.8 5-2.8 10.5-2.4 15.9.1.1.5.1.5-.1h0zm-33-32.7c2.3 5.5 9 5.8 14 7 3.5.9 6.1 3.2 8 6.3 2 3.3 3.4 7.3 4.6 11h.1c-1.4-6.5-3.4-14.4-10.1-17.5-5.4-2.4-12.5-1.2-16-7-.2-.4-.7-.2-.6.2h0z" class="w"/><path d="M73.9 398.6l.8 1.1c.1.2.3.3.4.5.2.1.4.3.6.3.1 0 .2-.1.1-.2-.1-.2-.3-.3-.5-.4s-.3-.3-.5-.4l-.9-.9c.1-.1-.1-.1 0 0h0z" fill="#43588e"/><path d="M59.8 415.9c3.9 3.2 7.5 7 10.3 11.1 1.4 2 2.6 4.1 3.8 6.2 1.2 2.3 2.1 4.8 3 7.2.1.2.4.2.4-.1-.5-5.1-3.8-9.5-6.4-13.8-1.4-2.2-3-4-4.8-5.9-1.9-1.9-3.8-3.7-6-5.3-.2 0-.6.4-.3.6h0zm31-6c-1.9 1.1-1.9 4-2 5.9-.1 3.6.8 7.1-.8 10.5-1.4 3.1-3.7 5.7-5.6 8.7-1.7 2.7-3.4 6.2-3.3 9.5 0 .2.3.3.4.1.7-1.5.9-3.2 1.4-4.7.5-1.8 1.3-3.3 2.3-4.9 1.7-2.7 3.9-5.2 5.3-8.1 1.5-3.1 1.3-6.1 1.2-9.4-.1-2.1-.3-5.5 1.4-7.1.4-.3 0-.7-.3-.5h0z" class="w"/><linearGradient id="J" gradientUnits="userSpaceOnUse" x1="103.404" y1="367.174" x2="85.525" y2="367.174"><stop offset=".341" stop-color="#98d400"/><stop offset="1" stop-color="#40a243"/></linearGradient><path d="M103.4 364.7c0-2-.4-3.9-.3-5.9l.2-5.8c0-2-.2-4.9-2.7-5.2-3-.4-6.1 2.3-7.6 4.7-.7 1.1-1.2 2.5-.9 3.8.2 1.2.9 2.1 1.5 3.2s1 2.2 0 3.1c-1.1 1-2.6 1.6-3.8 2.5-2.4 1.9-3.4 4.8-3.6 7.8l-.1 6.4-.5 6.4v.1c-.1.5-.1 1.1 0 .6.3-1 2-2.4 2.6-3.3l2.7-3.4c2.4-2.8 5.8-4.3 8.6-6.7 2.4-2.3 4-4.9 3.9-8.3z" fill="url(#J)"/><linearGradient id="K" gradientUnits="userSpaceOnUse" x1="111.466" y1="387.728" x2="65.876" y2="387.728"><stop offset=".341" stop-color="#98d400"/><stop offset="1" stop-color="#40a243"/></linearGradient><path d="M76.2 409.6c.3 1 .8 2.2.9 3.3 0 .3 3.6.1 4.7-.4.8-.3 1.5-.8 2-1.5 1.1-1.4 1.4-3.3 2-4.9.8-2.3 2.3-3.8 4.6-4.5 2-.7 4.2-1 6.3-1 3-.1 6.8.4 8-3.1.4-1.2.3-2.3.2-3.5-.1-1.3 0-2.4.6-3.5 1.1-1.9 2.6-3.6 3.7-5.4 1.1-1.7 2-3.7 2.1-5.7.1-1.7-.3-3.8-1.7-5-2.6-2.1-6.1 1.2-7.6 3.1-2 2.6-2.8 6.3-5.5 8.4-.8.6-1.6.7-2.6.5-.8-.2-1.6-.5-2.4-.5-1.3 0-2.5.5-3.5 1.4-1.6 1.4-2.7 3.5-3.6 5.5-.9 2.1-1.6 4.3-2.3 6.4l-2.8 7.8c-.5 1.5-.7 3.1-1.3 4.6 0-.3.1-.7.1-1 .2-1.6.3-3.1.4-4.7.1-1.7.2-3.4.2-5.1 0-1.4.2-3.6-.9-7.9-.7-2.7-2.2-5.2-2.1-8 .1-2.9 1.2-5.8 2.1-8.5 1.1-3.3 2-6.7 1.5-10.2-.1-1.1-.4-2.5-1.3-3.3s-2.2-.5-3.1.1c-3.7 2.1-4 6.6-3.9 10.5.1 2.6.9 5 1.4 7.6.1.5.7 3.4 0 3.6-.4.1-.9-.6-1-1-.2-.5-.4-1.1-.6-1.6-.5-1.4-.9-2.8-1.6-4.2-.4-.8-.9-2-1.9-2.1-1.2-.2-1.8 1.4-1.9 2.4-.2 2 .4 4 .5 6 .1 2.7 0 5.5 1 8s2.6 4.7 4.1 7c1.1 1.6 1.9 3.3 2.7 5.1 1.2 1.5 1.9 3.3 2.5 5.3z" fill="url(#K)"/><linearGradient id="L" gradientUnits="userSpaceOnUse" x1="77.506" y1="418.954" x2="57.088" y2="418.954"><stop offset="0" stop-color="#40a243"/><stop offset="1" stop-color="#98d400"/></linearGradient><path d="M57.1 410c.1 1.7.8 3.2 1.9 4.4 1.2 1.3 3 1.7 4.4 2.7.8.5 1.6 1.2 1.7 2.1.2 1-.4 1.9-.9 2.7-.9 1.5-1.7 3-1.9 4.7-.2 1.3 0 2.8 1 3.8 1.3 1.3 3.5 1.5 5.1 2.3 3.6 1.8 6.2 4.8 8.4 8.1.2.3.7.1.6-.2 0-.1-.1-.2-.2-.3-.3-2.3-.9-4.5-1.4-6.7s-.9-4.5-1.3-6.7c-.6-3.3-1.3-6.8-2.7-10-.5-1.2-1.2-2.3-2.2-3.1-1.1-.9-2.4-1.3-3.8-1.7-2.1-.6-3.5-1.8-4.3-3.9-.7-1.8-1.1-3.8-1.4-5.8-.1-1.1-.1-2.2-.2-3.3-.1-.7-.1-1.8-.8-2.1-.1-.1-.3 0-.4.1-.9 1.8-.9 4-1.2 6-.2 2.3-.5 4.7-.4 6.9z" fill="url(#L)"/><linearGradient id="M" gradientUnits="userSpaceOnUse" x1="99.17" y1="423.952" x2="77.31" y2="423.952"><stop offset="0" stop-color="#40a243"/><stop offset="1" stop-color="#98d400"/></linearGradient><path d="M80.2 426.4c-2 4.4-2.8 9-2.9 13.8 0 .2.3.3.4.3.2.1.1.4.1.1.2-3.2 2.5-6.6 5-8.6 2.4-1.9 5.3-3.2 8.2-4.3 1.3-.6 2.6-1.1 3.9-1.7 1-.5 2-1 2.8-1.7 1.6-1.6.9-4.1-.8-5.4-1.4-1.1-3.1-1.2-4.7-1.7 1.3-1.7 3.1-3 4.6-4.5 1-1 2.6-2.5 2.2-4.1-.7-2.7-3.9-.9-5.3 0-2.6 1.7-4.9 3.8-6.8 6.3-2.6 3.3-4.9 7.4-6.7 11.5z" fill="url(#M)"/><path d="M93.6 369.9c-1 2.2-2.1 4.3-3.3 6.4l-3.1 6.2-3.2 8-3 8.5c-1.6 5.6-2.8 11.4-3.3 17.2-.3 3-.4 5.9-.3 8.9.1 2.3.3 4.6.5 6.9.2 2.4.4 4.8.2 7.2-.2 2-.5 4.4-2.1 5.8-.3.3-.7-.1-.6-.4 1.9-3.8 1.8-8 1.4-12.1-.2-2.3-.5-4.5-.5-6.8-.1-2.9 0-5.8.3-8.7.5-5.7 1.7-11.3 3.1-16.9.8-2.8 1.7-5.6 2.8-8.3l3.4-8.1c1.9-5 4.8-9.4 7.3-14 .2-.2.5 0 .4.2h0z" fill="#292b30"/><path d="M77.6 410.6c-.3-3.6-.6-7.1-1.8-10.6-.6-1.6-1.3-3.2-1.8-4.8-.5-1.3-1.1-3.2-.8-4.6 0-.2.3-.2.3 0 .2.8.2 1.7.4 2.5l.6 2.4c.5 1.7 1.2 3.3 1.8 4.9 1.2 3.2 1.8 6.7 1.5 10.1.1.2-.2.2-.2.1h0zm21-20.8c-1.4 3.5-5.8 3.7-8.9 4.4-2.2.6-3.9 2.1-5.1 4-1.3 2.1-2.2 4.6-2.9 7h0c.9-4.2 2.1-9.2 6.4-11.1 3.4-1.6 8-.8 10.2-4.5 0-.2.4 0 .3.2h0z" class="w"/><path d="M79.9 410c-.2.2-.3.5-.5.7l-.3.3c-.1.1-.2.2-.4.2-.1 0-.1-.1-.1-.1l.3-.3.3-.3c.2-.1.4-.4.7-.5 0-.1 0 0 0 0h0z" fill="#43588e"/><path d="M88.9 421c-2.5 2-4.8 4.4-6.6 7.1-.9 1.3-1.7 2.6-2.4 3.9-.8 1.5-1.3 3-1.9 4.6 0 .1-.3.1-.2 0 .3-3.3 2.4-6.1 4.1-8.8.9-1.4 1.9-2.5 3.1-3.7s2.4-2.4 3.8-3.3c0-.2.2.1.1.2h0zm-19.7-3.8c1.2.7 1.2 2.6 1.3 3.8 0 2.3-.5 4.5.5 6.7.9 2 2.4 3.7 3.5 5.5 1.1 1.7 2.1 3.9 2.1 6 0 .1-.2.2-.2.1-.4-.9-.6-2-.9-3-.3-1.1-.8-2.1-1.5-3.1-1.1-1.7-2.5-3.3-3.4-5.1-.9-1.9-.8-3.9-.7-6 0-1.3.2-3.5-.9-4.5-.3-.3 0-.5.2-.4h0z" class="w"/><linearGradient id="N" gradientUnits="userSpaceOnUse" x1="56.3" y1="463.05" x2="100.217" y2="463.05"><stop offset="0" stop-color="#f17972"/><stop offset="1" stop-color="#f69b61"/></linearGradient><path d="M78.3 444.8l-22-.2 3.6 26.5c.8 6 5.9 10.4 11.9 10.4H78h.6 6.2c6 0 11.1-4.4 11.9-10.4l3.6-26.5-22 .2z" fill="url(#N)"/><defs ><path id="P" d="M244.5 260.9h-48.4c-.3 0-.5-.7-.5-1.5v-6.5c0-.8.2-1.5.5-1.5h48.4c.3 0 .5.7.5 1.5v6.5c0 .8-.2 1.5-.5 1.5z"/></defs></svg>