<svg xmlns="http://www.w3.org/2000/svg" viewBox="0 0 3200 2400" xmlns:v="https://vecta.io/nano"><style><![CDATA[.B{stroke-linejoin:round}.C{stroke-width:12}.D{stroke:#18137e}.E{stroke-miterlimit:10}.F{stroke-linecap:round}.G{fill:#fff}.H{fill:none}.I{fill:#d5d4ea}.J{stroke:#d5d4ea}.K{fill:#5dbbff}.L{fill:#ff9490}.M{fill:#00d3ae}]]></style><defs><clipPath id="A"><path stroke="#fff" transform="translate(-21.2 -26.245)" d="M0 0h744.7v496.65H0z" class="B C E K"/></clipPath></defs><g class="B C F"><g class="H J"><path d="M203.6 597.8h221.5 233.7V490.6M779.7 424h154.1m-275 173.8h310.9m-544.6 0v175.7m-45-349.5h127.5V276.4"/><path d="M507.6 424h204.2"/></g><path d="M1399.2 2013.4h1621m-2957.7 0h1271.3" class="D H"/><g class="J H"><path d="M2985.7 1262h154.2m-275.1 173.8h310.9m-857.1 0h312.6 233.6v-107.1m-151.2-214.3V1262h204.3m-286.7 173.8v175.8"/><path d="M2586.1 1262h127.5"/></g><g class="D E"><path d="M512.6 1827.3c-6.2-6-13.6-8.9-22.2-8.9H319.8c-8.7 0-16.1 3-22.2 8.9-6.1 6-9.2 13.2-9.2 21.7v9.1c-2.8-4.2-6.1-8.2-10-12-13.6-13.3-30.1-19.9-49.3-19.9-19.3 0-35.8 6.6-49.4 19.9s-20.4 29.3-20.4 48.1 6.8 34.8 20.4 48.2c13.7 13.3 30.1 19.9 49.4 19.9s35.7-6.6 49.3-19.9c4.2-4.2 7.8-8.6 10.8-13.2-.5-4.3-.8-8.7-.8-13.2 0 4.5.3 8.9.8 13.2 2.7 21.3 12.2 39.9 28.5 55.8 19.5 19 43.1 28.6 70.8 28.6h33.4c27.6 0 51.2-9.5 70.8-28.6 19.5-19 29.3-42 29.3-68.9V1849c-.2-8.4-3.3-15.7-9.4-21.7m-313.9 39.1c8.2-8 18.2-12 29.9-12s21.6 4 29.9 12c8.2 8.1 12.4 17.8 12.4 29.2 0 11.3-4.1 21-12.4 29.1s-18.3 12.1-29.9 12.1c-11.7 0-21.6-4-29.9-12.1s-12.4-17.8-12.4-29.1c0-11.4 4.1-21.1 12.4-29.2z" fill="#ffd0c2"/><path d="M2767.4 1596v-587.2h-825.5v56.5V1596h825.5" class="G"/></g></g><path d="M2034.9 1070.8c5.1 5 7.7 11 7.7 18.1s-2.6 13.1-7.7 18.1-11.3 7.5-18.5 7.5c-7.3 0-13.5-2.5-18.6-7.5s-7.7-11-7.7-18.1 2.6-13.1 7.7-18.1 11.3-7.4 18.6-7.4c7.2-.1 13.4 2.4 18.5 7.4m181.4 555c-3.5-3.4-7.7-5.1-12.6-5.1s-9.1 1.7-12.6 5.1-5.2 7.5-5.2 12.3 1.8 8.9 5.2 12.3c3.5 3.4 7.7 5.1 12.6 5.1s9.1-1.7 12.6-5.1 5.3-7.5 5.3-12.3-1.8-8.9-5.3-12.3z" class="G"/><g class="B C D E F I"><path d="M2327.8 1975.2v-295h-248.2v295h248.2"/><path d="M2448.6 1975.2h-120.8-248.2-120.8c-5.4 0-10 1.9-13.9 5.6-3.8 3.7-5.8 8.2-5.8 13.5v19.1h529.1v-19.1c0-5.2-1.9-9.7-5.8-13.5-3.7-3.7-8.3-5.6-13.8-5.6m318.8-345.7V1596h-825.5H1640v33.5c0 14 5.1 25.9 15.2 35.8s22.4 14.9 36.7 14.9h387.7 248.2 387.6c14.4 0 26.6-5 36.8-14.9s15.2-21.8 15.2-35.8"/><path d="M2203.7 1620.8c4.9 0 9.1 1.7 12.6 5.1s5.3 7.5 5.3 12.3-1.8 8.9-5.3 12.3-7.7 5.1-12.6 5.1-9.1-1.7-12.6-5.1-5.2-7.5-5.2-12.3 1.8-8.9 5.2-12.3c3.5-3.5 7.7-5.1 12.6-5.1"/></g><path d="M2752.2 973c-10.1-9.9-22.4-14.8-36.8-14.8H1691.9c-14.3 0-26.6 5-36.7 14.8-10.1 9.9-15.2 21.8-15.2 35.8h301.9 825.5c0-14-5-25.9-15.2-35.8z" class="B C D E I"/><path d="M1941.9 1065.3H1640V1596h301.9v-530.7" class="B C D E F K"/><path d="M1737.8 1260.2c-5.1-5-11.3-7.5-18.6-7.5-7.2 0-13.4 2.5-18.5 7.5s-7.7 11-7.7 18c0 7.1 2.6 13.1 7.7 18.1s11.3 7.5 18.5 7.5c7.3 0 13.5-2.5 18.6-7.5s7.7-11 7.7-18.1c-.1-7.1-2.7-13.1-7.7-18z" fill="#ffd0c2" class="B C D E"/><path d="M1700.7 1155.2c-5.1 5-7.7 11-7.7 18.1s2.6 13.1 7.7 18.1 11.3 7.4 18.5 7.4c7.3 0 13.5-2.5 18.6-7.4 5.1-5 7.7-11 7.7-18.1s-2.6-13.1-7.7-18.1-11.3-7.4-18.6-7.4c-7.2 0-13.4 2.4-18.5 7.4z" class="B C D E L"/><path d="M1640 1008.8v56.5h301.9v-56.5H1640z" fill="#ffce93" class="B C D E"/><g class="F B C D E"><path d="M1780.2 1166.1c-1.8 1.8-2.7 3.9-2.7 6.4s.9 4.6 2.7 6.4 4.1 2.7 6.7 2.7h93.1c2.6 0 4.8-.9 6.6-2.7s2.7-3.9 2.7-6.4-.9-4.7-2.7-6.4-4-2.6-6.6-2.6h-93.1c-2.7-.1-4.9.8-6.7 2.6m106.4 119.8c1.8-1.7 2.7-3.9 2.7-6.4s-.9-4.7-2.7-6.4-4-2.6-6.6-2.6h-93.1c-2.6 0-4.8.9-6.7 2.6-1.8 1.8-2.7 3.9-2.7 6.4s.9 4.7 2.7 6.4c1.8 1.8 4.1 2.7 6.7 2.7h93.1c2.5 0 4.7-.9 6.6-2.7m2.6 98.1c0-2.5-.9-4.7-2.7-6.4s-4-2.6-6.6-2.6h-93.1c-2.6 0-4.8.9-6.7 2.6-1.8 1.8-2.7 3.9-2.7 6.4s.9 4.6 2.7 6.4 4.1 2.7 6.7 2.7h93.1c2.6 0 4.8-.9 6.6-2.7s2.7-3.9 2.7-6.4m-109 90.8c-1.8 1.8-2.7 3.9-2.7 6.4s.9 4.6 2.7 6.4 4.1 2.7 6.7 2.7h93.1c2.6 0 4.8-.9 6.6-2.7s2.7-3.9 2.7-6.4-.9-4.7-2.7-6.4-4-2.6-6.6-2.6h-93.1c-2.7 0-4.9.9-6.7 2.6m-42.4-4.7c-5.1-5-11.3-7.5-18.6-7.5-7.2 0-13.4 2.5-18.5 7.5s-7.7 11-7.7 18c0 7.1 2.6 13.1 7.7 18.1s11.3 7.5 18.5 7.5c7.3 0 13.5-2.5 18.6-7.5s7.7-11 7.7-18.1c-.1-7.1-2.7-13.1-7.7-18" class="I"/><path d="M1700.7 1365.1c-5.1 5-7.7 11-7.7 18.1 0 7 2.6 13 7.7 18s11.3 7.5 18.5 7.5c7.3 0 13.5-2.5 18.6-7.5s7.7-11 7.7-18c0-7.1-2.6-13.1-7.7-18.1s-11.3-7.5-18.6-7.5c-7.2 0-13.4 2.5-18.5 7.5" class="M"/><path d="M1973.9 1538.9c-3.3 3.2-5 7.1-5 11.7 0 4.5 1.7 8.4 5 11.6s7.3 4.8 11.9 4.8h579.9c4.7 0 8.7-1.6 11.9-4.8 3.3-3.2 5-7.1 5-11.6 0-4.6-1.7-8.5-5-11.7s-7.2-4.8-11.9-4.8h-579.9c-4.6 0-8.6 1.6-11.9 4.8" class="I"/></g><path d="M2612.5 1538.6c-3 3.3-4.4 7.3-4.4 12s1.5 8.7 4.4 11.9c3 3.3 6.6 5 10.8 5h92.9c4.2 0 7.8-1.7 10.8-5s4.5-7.3 4.5-11.9c0-4.7-1.5-8.7-4.5-12s-6.6-4.9-10.8-4.9h-92.9c-4.2 0-7.8 1.6-10.8 4.9z" class="B C D E K"/><path d="M2672.1 1965.2c5.2 2.9 11.3 5.7 18.3 8.2 27.8 10.5 61.4 15.7 100.8 15.7h4.1l-.1-38.5.1 38.5c37.6-.4 69.8-5.6 96.6-15.7 11-4.1 19.8-8.5 26.4-13.3-6.2-6.3-14.3-12.2-24.2-17.7-26.7-14.9-58.9-22.3-96.8-22.3-37.8 0-70 7.4-96.8 22.3-12.3 7-21.8 14.6-28.4 22.8" class="G"/><g class="B C D F"><path d="M2690.4 1973.5c-7-2.6-13.1-5.3-18.3-8.2-7.6 9.5-11.4 19.8-11.4 31.1 0 6 1.1 11.7 3.2 17.1h267.2c2.1-5.4 3.2-11.1 3.2-17.1 0-13.3-5.3-25.3-15.9-36.2-6.6 4.8-15.4 9.2-26.4 13.3-26.8 10.1-59.1 15.3-96.6 15.7h-4.1c-39.5 0-73.1-5.2-100.9-15.7" class="E I"/><path d="M2918.3 1960.2c-6.6 4.8-15.4 9.2-26.4 13.3-26.8 10.1-59.1 15.3-96.6 15.7h-4.1c-39.4 0-73-5.2-100.8-15.7-7-2.6-13.1-5.3-18.3-8.2-7.6 9.5-11.4 19.8-11.4 31.1 0 6 1.1 11.7 3.2 17.1h267.2c2.1-5.4 3.2-11.1 3.2-17.1-.1-13.4-5.4-25.4-16-36.2-6.2-6.3-14.3-12.2-24.2-17.7-26.7-14.9-58.9-22.3-96.8-22.3-37.8 0-70 7.4-96.8 22.3-12.4 6.9-21.9 14.5-28.6 22.8m123.3-14.6v38.5" class="H"/><g class="E I"><path d="M1113.7 1989.4c7 6.6 15.3 10 25.2 10.2h336.2c9.7-.2 18.1-3.6 25-10.2 4.4-4.2 7.5-8.9 9.2-14.1h-404.9c1.8 5.2 4.8 9.9 9.3 14.1"/><path d="M877.2 1975.6v-.2h-89.9v19.1c0 5.2 3.8 9.7 11.4 13.4s16.7 5.6 27.5 5.6h970.3c10.7 0 19.8-1.9 27.3-5.6 7.6-3.7 11.3-8.2 11.3-13.4v-19.1h-89.8v.2-.2h-36.1-200c-1.7 5.2-4.8 9.9-9.2 14.1-7 6.6-15.3 10-25 10.2h-336.2c-9.8-.2-18.2-3.6-25.2-10.2-4.4-4.2-7.5-8.9-9.2-14.1H913.2h-36v.2"/></g></g><path d="M1674.1 1502.9c10.2 0 18.9 3.4 26 10.2 7.2 6.9 10.8 15.1 10.8 24.7v427c0 3.7-.5 7.2-1.6 10.5h36.1v-463.6c0-10.5-3.9-19.4-11.8-26.8-7.8-7.4-17.2-11.1-28.3-11.1H917.2c-11 0-20.5 3.7-28.2 11.1-7.8 7.4-11.7 16.3-11.7 26.8v463.6h36c-1.1-3.3-1.6-6.8-1.6-10.5v-427c0-9.6 3.6-17.8 10.8-24.7 7.2-6.8 15.9-10.2 26.1-10.2h725.5z" class="B C D E I"/><path d="M1700.1 1513.1c-7.2-6.8-15.8-10.2-26-10.2H948.5c-10.2 0-18.9 3.4-26.1 10.2-7.2 6.9-10.8 15.1-10.8 24.7v427c0 3.7.5 7.2 1.6 10.5h191.3 404.9 200c1.1-3.3 1.6-6.8 1.6-10.5v-427c-.1-9.6-3.7-17.8-10.9-24.7" fill="#ffce93" class="B C D E F"/><path d="M1202.8 1818.4c-8.2 0-15.3 2.8-21.1 8.5s-8.7 12.5-8.7 20.5 2.9 14.9 8.7 20.6 12.9 8.5 21.1 8.5h202.1c8.3 0 15.3-2.8 21-8.5 5.8-5.7 8.7-12.5 8.7-20.6 0-8-2.9-14.9-8.7-20.5-5.8-5.7-12.8-8.5-21-8.5h-202.1z" class="B C D E K"/><g class="F B C D E"><path d="M1289.236 1705.082v60.8l52.1-35.4 62.3-129.3-114.4 103.9" class="I"/><path d="M1403.636 1601.182l-62.3 129.3 62.3 30.3v-159.6" class="G"/></g><path d="M1208.636 1705.082h80.6l114.4-103.9z" class="B C D E G"/><g class="F B C D"><path d="M761.7 874.6h-76.4m102-57.6l-22-68.5m-9.4 84.4L659 773.5" class="H"/><path d="M1423.2 885.8c-7.6-7.5-16.9-11.2-27.8-11.2H846.8c-10.8 0-20.1 3.7-27.8 11.2s-11.5 16.5-11.5 27v378.8c0 10.6 3.8 19.6 11.5 27.1s16.9 11.2 27.8 11.2h548.6c10.9 0 20.1-3.8 27.8-11.2 7.6-7.5 11.5-16.5 11.5-27.1v-137.8l94.9-55-94.9-52.6V912.8c0-10.5-3.9-19.5-11.5-27" class="E L"/></g><path d="M1096.6 1086.2c5.4-5.3 12-7.9 19.7-7.9s14.2 2.6 19.6 7.9 8.2 11.7 8.2 19.2-2.7 13.8-8.2 19.1c-5.4 5.3-11.9 8-19.6 8s-14.3-2.7-19.7-8-8.1-11.7-8.1-19.1 2.7-13.9 8.1-19.2m-106.8-8c7.7 0 14.2 2.6 19.6 7.9s8.2 11.7 8.2 19.2-2.7 13.8-8.2 19.1c-5.4 5.3-11.9 8-19.6 8s-14.2-2.7-19.7-8c-5.4-5.3-8.1-11.7-8.1-19.1s2.7-13.8 8.1-19.2c5.4-5.2 12-7.9 19.7-7.9m236 8c5.4-5.3 12-7.9 19.7-7.9s14.2 2.6 19.7 7.9c5.4 5.3 8.1 11.7 8.1 19.2s-2.7 13.8-8.1 19.1-12 8-19.7 8-14.2-2.7-19.7-8c-5.4-5.3-8.1-11.7-8.1-19.1s2.6-13.9 8.1-19.2z" class="L"/><g class="B C D E F"><g class="G"><path d="M1245.4 1078.2c-7.7 0-14.2 2.6-19.7 7.9-5.4 5.3-8.1 11.7-8.1 19.2s2.7 13.8 8.1 19.1 12 8 19.7 8 14.2-2.7 19.7-8c5.4-5.3 8.1-11.7 8.1-19.1s-2.7-13.8-8.1-19.2c-5.5-5.2-12-7.9-19.7-7.9" opacity=".818"/><path d="M1116.3 1078.2c-7.7 0-14.3 2.6-19.7 7.9s-8.1 11.7-8.1 19.2 2.7 13.8 8.1 19.1 12 8 19.7 8 14.2-2.7 19.6-8 8.2-11.7 8.2-19.1-2.7-13.8-8.2-19.2c-5.4-5.2-11.9-7.9-19.6-7.9m-107 8c-5.4-5.3-11.9-7.9-19.6-7.9s-14.2 2.6-19.7 7.9c-5.4 5.3-8.1 11.7-8.1 19.2s2.7 13.8 8.1 19.1c5.5 5.3 12 8 19.7 8s14.2-2.7 19.6-8 8.2-11.7 8.2-19.1-2.7-13.9-8.2-19.2"/></g><path d="M123.2 1058.2c-10.9 0-20.2 3.7-27.8 11.2-7.7 7.5-11.5 16.5-11.5 27.1v378.8c0 10.6 3.8 19.6 11.5 27.1 7.6 7.5 16.9 11.2 27.8 11.2H565l106.8 87.1v-87.1c10.8 0 20.1-3.7 27.8-11.2s11.5-16.5 11.5-27.1v-378.8c0-10.6-3.8-19.6-11.5-27.1s-16.9-11.2-27.8-11.2H123.2" fill="#7c76bb"/><path d="M170.4 1394.95h0 0m0-92.6h0" class="G"/></g><path d="M343.458 1186.378c-3.942 0-7.331 1.355-10.164 4.066-2.772 2.71-4.189 6.037-4.189 9.856 0 3.881 1.417 7.146 4.189 9.856 2.834 2.71 6.16 4.066 10.164 4.066h.246c3.942 0 7.331-1.355 10.103-4.066 2.834-2.71 4.189-6.037 4.189-9.856s-1.417-7.146-4.189-9.856-6.16-4.066-10.103-4.066h-.246z" stroke-width="7.392" class="B D E G"/><g class="C F B D"><path d="M182.6 1145.7c-9.1 8.9-13.7 19.5-13.7 32s4.6 23.1 13.7 32c9.1 8.8 20 13.2 32.8 13.2s23.7-4.4 32.8-13.2c9.1-8.9 13.6-19.5 13.6-32s-4.5-23.2-13.6-32-20-13.2-32.8-13.2c-12.8-.1-23.7 4.3-32.8 13.2" class="E G"/><path d="M32.8 1289.6v-242.5c0-10.6 3.8-19.6 11.5-27.1 7.6-7.5 16.9-11.2 27.8-11.2h248.1m1737.9-108.5h585.5" class="H"/></g><g transform="matrix(.921187 .389119 -.389119 .921187 -282.938107 -1036.377385)" class="B C D E"><path d="M2271.6 1022.7l241-230.4-92.1-39-83.3 78-65.6 191.4m287-210.9l-40.3 29.6-246.8 181.2 285.3-70.9 92.1-97.4-90.3-42.5z" class="F G"/><path d="M2518.4 841.5l-5.8-49.1-241 230.4 246.8-181.3z" class="I"/></g><g class="B C J"><path d="M1348.489 528.801c33.977-86.604 113.956-230.2 277.202-259.703 229.021-41.559 322.799 119.093 282.262 194.242-29.235 54.304-132.778 95.891-244.603-7.902-134.362-124.712-15.964-281.389 118.913-271.746 117.184 8.357 305.282 128.954 269.604 272.266-28.372 113.94-200.952 179.211-254.609 203.441" stroke-dasharray="60.071,40.0474" stroke-dashoffset="-51.08px" class="F H"/><path d="M2791.8 524.95c0 62.1-21.9 115-65.8 158.9s-96.8 65.8-158.9 65.8-115-22-158.9-65.8c-43.9-43.9-65.8-96.8-65.8-158.9s21.9-115 65.8-159c13.2-13.2 27.2-24.4 41.9-33.5 34.5-21.5 73.5-32.2 117-32.2s82.5 10.8 117 32.2c14.8 9.2 28.7 20.4 41.9 33.5 43.9 44 65.8 96.9 65.8 159z" class="G"/></g><g transform="matrix(-.033923 .999424 -.999424 -.033923 2709.82389 379.197546)" class="B C J"><path d="M180.5 128.7c-1.1-2.9-2.8-5.5-5.2-7.9-4.3-4.3-9.5-6.5-15.6-6.5-2.9 0-5.6.5-8.1 1.5-2.7 1.1-5.2 2.7-7.4 5-4.2 4.2-6.4 9.2-6.5 15.1v.4c0 6.1 2.2 11.2 6.5 15.5s9.5 6.5 15.5 6.5h.2c6 0 11.1-2.2 15.4-6.5s6.4-9.5 6.4-15.5c0-2.6-.4-5.2-1.2-7.6z" class="G"/><g class="E I"><path d="M137.7 136.4v-.4L0 215.7l159.9-57.3h-.2c-6.1 0-11.2-2.2-15.5-6.5s-6.5-9.4-6.5-15.5" class="F"/><path d="M175.3 120.9c2.4 2.4 4.1 5 5.2 7.9L217 0l-65.4 116c2.5-1 5.2-1.5 8.1-1.5 6.1-.1 11.3 2.1 15.6 6.4z"/></g></g><g class="F B H"><path d="M2564.5 327.25v43.4m145.9 153.2h43.4m-182 150.6v42.2m-202.6-192.8h47.1" class="C J"/><g stroke-dasharray="100 50" stroke-width="11.85" class="D"><path d="M409.942 1629.499c5.56 3.479 38.658 38.559 17.915 68.73-17.636 25.651-17.915 51.858 0 82.972" stroke-dashoffset="38.31px"/><path d="M360.384 1676.255c4.09 2.559 28.436 28.363 13.178 50.557-12.972 18.868-13.178 38.145 0 61.032" stroke-dashoffset="41.1935px"/></g></g><g clip-path="url(#A)" transform="translate(1990.1 1063.3)" class="E B C D"><g opacity="0"><g class="F M"><path d="M112.8 473.8c-6.4 0-11.8 2.5-16.4 7.4-4.5 5-6.7 10.9-6.7 17.9V532c0 7 2.2 13 6.7 18 4.6 5 10 7.4 16.4 7.4h347.8c6.4 0 11.8-2.5 16.3-7.4 4.5-5 6.8-11 6.8-18v-32.9c0-7-2.2-13-6.8-17.9s-9.9-7.4-16.3-7.4H112.8"/><path d="M116.2 528.6h54.6M113 502h325.8"/></g><path d="M26.3 476.6c-7.3 0-13.5 2.5-18.6 7.5S0 495.1 0 502.2s2.6 13.1 7.7 18.1 11.3 7.5 18.6 7.5c7.2 0 13.4-2.5 18.5-7.5s7.7-11 7.7-18.1-2.6-13.1-7.7-18.1-11.3-7.5-18.5-7.5z" class="L"/></g><g opacity=".496" class="F I"><path d="M624 332.666c0-6.2-2.3-11.5-6.8-15.9s-9.9-6.6-16.3-6.6H241.3c-6.4 0-11.8 2.2-16.4 6.6-4.5 4.4-6.8 9.7-6.8 15.9v78.6c0 6.2 2.2 11.6 6.8 15.9 4.5 4.4 10 6.6 16.4 6.6h359.6c6.4 0 11.8-2.2 16.3-6.6s6.8-9.7 6.8-15.9v-78.6"/><path d="M267.2 377.066h119.6m-119 28.9h270.1m-273.4-62.6h303"/></g><g class="F M"><path d="M470.1 22.5c0-6.2-2.3-11.6-6.8-16S453.4 0 447 0H107.7c-6.4 0-11.8 2.2-16.4 6.5-4.5 4.4-6.8 9.7-6.8 16v68.6c0 6.2 2.3 11.6 6.8 16s10 6.5 16.4 6.5H447c6.4 0 11.8-2.2 16.3-6.5 4.5-4.4 6.8-9.7 6.8-16V22.5"/><path d="M119.4 87.6h110.3m-111.3-57H416"/></g><path d="M118.4 61.6h233.9-233.9z" class="M"/><path d="M52.5 25.5c0-7.1-2.6-13.1-7.7-18.1S33.5 0 26.3 0C19 0 12.8 2.5 7.7 7.4c-5.1 5-7.7 11-7.7 18.1s2.6 13.1 7.7 18.1 11.3 7.5 18.6 7.5c7.2 0 13.4-2.5 18.5-7.5s7.7-11 7.7-18.1z" fill="#7c76bb"/></g></svg>