<svg xmlns="http://www.w3.org/2000/svg" xmlns:xlink="http://www.w3.org/1999/xlink" viewBox="0 0 441.09 350.16" xmlns:v="https://vecta.io/nano"><style><![CDATA[.J,.N,.Q,.T,.Z,.a,.b,.e{isolation:isolate}.h{fill:#343e8e}.i{fill:#fff}.j{stroke:#263238}.k{fill:none}.l{stroke-width:.89}.m{stroke-miterlimit:10}.n{fill:#263238}.o{fill:#e0e0e0}.p{stroke-linejoin:round}.q{opacity:.3}.r{opacity:.5}.s{fill:#f5f5f5}.t{fill:#d2d2d2}.u{stroke-width:1.16}.v{stroke-linecap:round}]]></style><defs><clipPath id="A"><path d="M204.84 156.52l-29.33-9.58-2.61-6.89-5.95-.19-10.8-2.04 1.29 2.23 13.6 9.88 3.36 1.67 30.66 16.02-.22-11.1z" class="k"/></clipPath><clipPath id="B"><path d="M172.9 140.05l-2.78-1.67-5.6 2.05.93 1.11 7.45-1.49z" class="k"/></clipPath><clipPath id="C"><path d="M211.06 94.39s-.46 4 .67 6.58 7.41 11.29 7.41 11.29l-11.72 9.4-5.78-11.38c-.92-1.58-2-8.41 1-13.3s7.36-6.2 8.42-2.59z" class="k"/></clipPath><clipPath id="D"><path d="M214.69 87.05c-.72-4.45-5.82-13.5-13.92-13.16-5.25.23-7.71 1.29-10 2.59a30.31 30.31 0 0 0-5.16 3.86c-4 4.75-5.34 6-4.58 9.68a11 11 0 0 0 .67 4.26 34 34 0 0 0 3.09 6.88c-.32 1.5-1.16 5.47-1.2 6.38s2.67.28 4-.07c2.55 5.7 7.21 9.65 8.66 10.11 2.53.79 6.53-3.37 8.65-6.59s.52-6.85.52-8.29 4.77-4.61 6.53-5.62 3.45-5.58 2.74-10.03z" class="k"/></clipPath><clipPath id="E"><path d="M224.4,118.86s6.31,4.3,6.45,14.46c.06,4.45-.4,8.61-1.42,15.9s-7.38,31-12.34,33.93-12.63-2.57-12.63-2.57l-37.15-24.67-9-7.26-4.45-8.4,1.39-2.67,11,8.4-5.94-5.46,1.16-1.46,2.14,1.48,6.23,2.33,1.36,8.91,1.93,1.32,35.55,13s-.45-19.14-.12-22.8.79-12.85,4.71-19.52" class="k"/></clipPath><path id="F" d="M204.84 156.53l-29.33-9.58-2.61-6.89-5.95-.19-10.81-2.04 1.3 2.23 13.6 9.88 3.36 1.67 30.67 16.02-.23-11.1z"/><path id="G" d="M172.9 140.06l-2.79-1.67-5.58 2.05.92 1.11 7.45-1.49z"/><path id="H" d="M211.06 94.39s-.46 4 .67 6.58 7.41 11.29 7.41 11.29l-11.72 9.4-5.78-11.38c-.92-1.58-2-8.41 1-13.3s7.36-6.2 8.42-2.59z"/><path id="I" d="M214.69 87.05c-.72-4.45-5.82-13.5-13.92-13.16-5.25.23-7.71 1.29-10 2.59a30.31 30.31 0 0 0-5.16 3.86c-4 4.75-5.34 6-4.58 9.68a11 11 0 0 0 .67 4.26 34 34 0 0 0 3.09 6.88c-.32 1.5-1.16 5.47-1.2 6.38s2.67.28 4-.07c2.55 5.7 7.21 9.65 8.66 10.11 2.53.79 6.53-3.37 8.65-6.59s.52-6.85.52-8.29 4.77-4.61 6.53-5.62 3.45-5.58 2.74-10.03z"/><path id="J" d="M224.4 118.86s6.31 4.3 6.45 14.46c.06 4.45-.4 8.61-1.42 15.9s-7.38 31-12.34 33.93-12.63-2.57-12.63-2.57l-37.15-24.67-9-7.26-4.45-8.4 1.39-2.67 11 8.4-5.94-5.46 1.16-1.46 2.14 1.48 6.23 2.33 1.36 8.91 1.93 1.32 35.55 13s-.45-19.14-.12-22.8.79-12.85 4.71-19.52"/><path id="K" d="M50.82 204.55s-13.94-35.42-1.51-39.63c12.92-4.39 12.35 19 11.85 30.4-1 24.36-3.74 28.94-5.75 22.94zm-4.19 27.63c3.83 5 4.91-.18-2-23.57-3.24-11-10.28-33.25-21.08-24.9-10.37 8 14.31 37 14.31 37zm-7.4 20.3c3.65 3.24 3.72-.85-5-17.74-4.07-7.91-12.68-23.92-19.73-16C7.73 226.38 30.8 245 30.8 245zm-8 24.14c3.65 3.25 3.72-.85-5-17.73-4.07-7.89-12.68-23.89-19.73-16-6.73 7.66 16.27 26.23 16.27 26.23zm23.08-49.14c-5.84 2.28-1.24 4.78 23.19 4.69 11.44 0 34.8-.52 29.82-13.23-4.77-12.21-39.51 3.32-39.51 3.32zm-6.65 16.24c-6.18 1.07-2.12 4.43 21.8 9.21 11.21 2.25 34.2 6.4 31.85-7-2.23-12.92-39.37-4.6-39.37-4.6zm-7.44 19.83c-5.26.76-1.9 3.69 18.21 8.29 9.43 2.16 28.78 6.21 27.1-5.22-1.6-11-33.2-4.78-33.2-4.78zm-5.65 18.37c-5.15 1.31-1.5 3.87 19 6.31 9.6 1.14 29.27 3.12 26.4-8.07-2.77-10.74-33.53-1.23-33.53-1.23zm30.14-74.37c-3 6.72 3.23 5.7 24.41-12.78 9.88-8.67 29.82-26.77 14.06-35.84-15.13-8.68-31.4 33.2-31.4 33.2zm-29.36 98.3c-3.17 1.85-.06 2.57 14.48-.33 6.82-1.35 20.69-4.35 16-10.27-4.54-5.7-23.14 6.3-23.14 6.3z"/><path id="L" d="M57 221l-2.43-40.43m-5.23 53.77l-15.42-34.73m55 24.66l-36.83 5.28m-10.78 23.57l-19.92-25.57m23.43 17.71l27.49 1.38m-34 18.23l21 2.08m-26 10.4l-10.49-15.69m9.27 21.23l24.69.23m-29.69 46.14a.64.64 0 0 0 .58-.67c-1.57-23.58 7.55-62.2 22.18-93.9 9.35-20.26 46-60.08 46.39-60.48a.63.63 0 0 0 0-.88h0a.6.6 0 0 0-.85 0h0c-.37.4-37.17 40.37-46.6 60.81-14.9 32.47-23.9 70.39-22.3 94.54a.64.64 0 0 0 .6.58zM57 221.66a.63.63 0 0 0 .59-.66l-2.39-40.45a.62.62 0 0 0-.64-.6h0a.63.63 0 0 0-.59.66L56.36 221a.62.62 0 0 0 .62.59zM49.5 235a.62.62 0 0 0 .32-.82h0l-15.37-34.8a.61.61 0 0 0-.8-.33h0a.64.64 0 0 0-.32.82h0l15.34 34.81a.67.67 0 0 0 .57.38.77.77 0 0 0 .3-.06zm2.66-4.8L89 224.89a.64.64 0 0 0 .62-.65.62.62 0 0 0-.63-.61h-.16L52 228.91a.62.62 0 0 0-.58.66h0a.63.63 0 0 0 .66.58zm-10.49 23.42a.62.62 0 0 0 .12-.87h0l-19.95-25.63A.61.61 0 0 0 21 227h0a.64.64 0 0 0-.12.89l20 25.66a.59.59 0 0 0 .82.13l.07-.06zm31.16-6.93a.61.61 0 0 0-.57-.65h0l-27.41-1.39a.63.63 0 0 0-.59.67h0a.64.64 0 0 0 .53.58l27.46 1.36h0a.64.64 0 0 0 .65-.6zM59.9 267a.62.62 0 0 0-.54-.69h0l-21-2.07a.62.62 0 0 0-.68.55h0a.64.64 0 0 0 .56.68l21 2.08h.07A.62.62 0 0 0 60 267h-.1zm-26.35 10.87a.63.63 0 0 0 .18-.87l-10.42-15.67a.63.63 0 0 0-.87-.17.65.65 0 0 0-.18.87l10.38 15.69a.69.69 0 0 0 .53.28.73.73 0 0 0 .38-.11zm23.82 5.25a.65.65 0 0 0-.62-.63l-24.66-.23h0a.62.62 0 0 0-.62.62.61.61 0 0 0 .59.62h0l24.69.23h0a.63.63 0 0 0 .66-.6h0zM24.24 320c.05-.11 4.26-11.71 16.92-14.48.337-.075.55-.408.475-.745s-.408-.55-.745-.475h0c-13.35 2.92-17.8 15.17-17.8 15.29a.65.65 0 0 0 .39.8h.2a.63.63 0 0 0 .63-.39zm2.85 9.22a.64.64 0 0 0 .58-.67c-1.57-23.58 7.55-62.2 22.18-93.9 9.35-20.26 46-60.08 46.39-60.48a.63.63 0 0 0 0-.88h0a.6.6 0 0 0-.85 0h0c-.37.4-37.17 40.37-46.6 60.81-14.9 32.47-23.9 70.39-22.3 94.54a.65.65 0 0 0 .61.62zM57 221.66a.63.63 0 0 0 .59-.66l-2.39-40.45a.62.62 0 0 0-.64-.6h0a.63.63 0 0 0-.59.66L56.36 221a.62.62 0 0 0 .62.59zM49.5 235a.62.62 0 0 0 .32-.82h0l-15.37-34.8a.61.61 0 0 0-.8-.33h0a.64.64 0 0 0-.32.82l15.34 34.81a.67.67 0 0 0 .57.38.77.77 0 0 0 .3-.06zm2.66-4.8L89 224.89a.64.64 0 0 0 .62-.65.62.62 0 0 0-.63-.61h-.16L52 228.91a.62.62 0 0 0-.58.66h0a.63.63 0 0 0 .66.58zm-10.49 23.42a.62.62 0 0 0 .12-.87h0l-19.95-25.63A.61.61 0 0 0 21 227h0a.64.64 0 0 0-.12.89l20 25.66a.59.59 0 0 0 .82.13l.07-.06zm31.16-6.93a.61.61 0 0 0-.57-.65h0l-27.41-1.39a.63.63 0 0 0-.59.67h0a.64.64 0 0 0 .53.58l27.46 1.36h0a.64.64 0 0 0 .65-.6zM59.9 267a.62.62 0 0 0-.54-.69h0l-21-2.07a.62.62 0 0 0-.68.55h0a.64.64 0 0 0 .56.68l21 2.08h.07A.62.62 0 0 0 60 267h-.1zm-26.35 10.87a.63.63 0 0 0 .18-.87l-10.42-15.67a.63.63 0 0 0-.87-.17.65.65 0 0 0-.18.87l10.38 15.69a.69.69 0 0 0 .53.28.73.73 0 0 0 .38-.11zm23.82 5.25a.65.65 0 0 0-.62-.63l-24.66-.23h0a.62.62 0 0 0-.62.62.61.61 0 0 0 .59.62h0l24.69.23h0a.63.63 0 0 0 .66-.6h0zM24.24 320c.05-.11 4.26-11.71 16.92-14.48.337-.075.55-.408.475-.745s-.408-.55-.745-.475h0c-13.35 2.92-17.8 15.17-17.8 15.29a.65.65 0 0 0 .39.8h.2a.63.63 0 0 0 .63-.39z"/></defs><path d="M55.1.02h85.11v88.72H55.1z" class="o"/><path d="M60.86.02h85.11v88.72H60.86z" fill="#fafafa"/><path d="M60.83 0H146v88.77H60.83zM146 0H60.89v88.67H146z" class="o"/><path d="M72.3 11.95h62.23v64.87H72.3z" class="i"/><g class="o"><path d="M134.53 77.26a9.77 9.77 0 0 0 1.54 1.79l4 4 4.07 3.89a10 10 0 0 0 1.8 1.5 10 10 0 0 0-1.53-1.78l-4-4-4.07-3.9a10 10 0 0 0-1.81-1.5zm-62.22-.17a10 10 0 0 0-1.78 1.54l-4 4-3.9 4.07a9.21 9.21 0 0 0-1.49 1.8 9.93 9.93 0 0 0 1.77-1.5l4-4 3.9-4.07a9 9 0 0 0 1.5-1.84zm.16-64.97a10.89 10.89 0 0 0-1.53-1.79l-4-4-4.06-3.89a10 10 0 0 0-1.8-1.5 9.55 9.55 0 0 0 1.52 1.78l4 4 4.07 3.89a9 9 0 0 0 1.8 1.51zm62.23.14a10.06 10.06 0 0 0 1.79-1.53l4-4 3.89-4.06a10.78 10.78 0 0 0 1.5-1.8 9 9 0 0 0-1.79 1.59l-4 4-3.9 4.07a10.24 10.24 0 0 0-1.49 1.73z"/><path d="M72.47 76.82a1.71 1.71 0 0 0 0-.32v-4.4l.06-13.22.12-46.93-.24.24h62.05l-.27-.28v64.87l.24-.24-44.93.12-12.63.07h-.07l12.57.07 45.08.12h.24V11.54h-62.6v.24l.12 47.08.07 13.17v4.3a1 1 0 0 0 .19.49z"/></g><path d="M1.059 147.986l3.311-32.311 47.929 4.911-3.311 32.311z" class="s"/><g class="o"><path d="M53.49 123.33a3.58 3.58 0 0 1-.52.34l-1.54.9-5.72 3.23-19 10.56-.15.09-.12-.14-.28-.33L12 121.18 7.71 116q-.72-.87-1.14-1.41a3.75 3.75 0 0 1-.38-.51 3.19 3.19 0 0 1 .44.46l1.21 1.35 4.37 5 14.31 16.72c.1.1.19.22.28.33l-.27-.05 19-10.45 5.81-3 1.58-.83a3.77 3.77 0 0 1 .57-.28z"/><path d="M0 146c-.08-.1 4.33-3.78 9.84-8.22s10-8 10.11-7.88-4.33 3.77-9.84 8.22S.09 146.14 0 146zm35.75-13.39c.11-.06 2.78 5 6 11.21s5.69 11.36 5.56 11.41-2.78-5-6-11.21-5.67-11.36-5.56-11.41z"/></g><path d="M100.681 180.382l31.669-20.637 13.911 21.348-31.669 20.637z" class="s"/><g class="o"><path d="M135.91 162.08a2.51 2.51 0 0 1-.16.46l-.53 1.3-2 4.74-6.72 15.65-.06.13h-.13l-.33-.07-16.87-3.62-5.11-1.14-1.38-.32a2.9 2.9 0 0 1-.48-.14 2.63 2.63 0 0 1 .49.07l1.4.26 5.13 1 16.89 3.5.34.07-.2.1 6.82-15.6 2.08-4.72.59-1.27a3.18 3.18 0 0 1 .23-.4z"/><path d="M113.55 201.77c-.09 0 .88-4.42 2.17-9.82s2.42-9.76 2.51-9.74-.88 4.42-2.17 9.82-2.42 9.8-2.51 9.74zm15.76-25.44c0-.09 4.11 1.75 9.08 4.1l8.94 4.41c-.06.08-4.11-1.75-9.08-4.1l-8.94-4.41z"/></g><path d="M441.09 349.9c0 .15-95.38.26-213 .26s-213-.11-213-.26 95.36-.26 213-.26l213 .26z" class="n"/><path d="M272.5 83.06h21.9v32.5h-21.9z" class="s"/><g class="o"><path d="M301.61 92.13l-.3.2-1.05.58-3.85 2.09-12.86 7-.11.06-.08-.09-.18-.23-9.47-11.42-2.85-3.48-.77-1a1.67 1.67 0 0 1-.24-.35l.29.32.81.92 2.92 3.38 9.53 11.37.2.22h-.29l13-6.88 3.92-2.06 1.07-.55z"/><path d="M289.6 98.26c.07 0 1.84 3.38 3.94 7.6l3.7 7.74c-.06.03-1.85-3.38-3.95-7.6l-3.69-7.74zM349.09 96c-.07 0 3.54-4.94 8.05-10.93l8.3-10.74c.07.06-3.53 5-8 11S349.17 96 349.09 96zm32.52-24.67a11.09 11.09 0 0 1-2.55.51l-6.2.82-6.24.67a10.77 10.77 0 0 1-2.6.07 12.32 12.32 0 0 1 2.56-.49l6.2-.83 6.23-.66a11.3 11.3 0 0 1 2.6-.09zm-5.3 5a9.92 9.92 0 0 1-3.23.64 9.51 9.51 0 0 1-3.28 0 8.88 8.88 0 0 1 3.22-.64 9.1 9.1 0 0 1 3.29 0zm-40.69 95.57c0-.08 3.66-3.11 8.29-6.78s8.46-6.59 8.53-6.5-3.66 3.11-8.29 6.78-8.46 6.6-8.53 6.5z"/></g><rect x="239.15" y="31.57" width="168.16" height="317.64" rx="16.81" class="n"/><g class="j u"><path d="M246.62 66.45h153.22v247.88H246.62z" class="i m"/><path d="M339.89 49.09h-33.35a2.26 2.26 0 0 1-2.27-2.25h0a2.27 2.27 0 0 1 2.27-2.27h33.35a2.27 2.27 0 0 1 2.27 2.27h0a2.27 2.27 0 0 1-2.27 2.27z" class="h p"/></g><path d="M332.31 328.33a9.09 9.09 0 0 0-18.18-.02 9.09 9.09 0 0 0 9.08 9.1h0a9.1 9.1 0 0 0 9.1-9.08z" class="h"/><path d="M318.63 323.73h9.21v9.21h-9.21z" class="h j p u"/><text class="J n" transform="translate(265.43 161.13)" font-size="18" font-family="Poppins-Bold,Poppins" font-weight="700">SHORT CODE</text><g class="i"><g class="j l"><use xlink:href="#F" class="m"/><use xlink:href="#G" class="p"/></g><use xlink:href="#F"/></g><g clip-path="url(#A)" class="N h j l m"><use xlink:href="#F" class="r"/></g><use xlink:href="#F" class="j k l m"/><use xlink:href="#G" class="i"/><g clip-path="url(#B)" class="Q h j l p"><use xlink:href="#G" class="r"/></g><use xlink:href="#G" class="j k l p"/><use xlink:href="#H" class="i"/><g clip-path="url(#C)" class="T h"><path class="r" d="M205.04 107.28l5.08 10.54-2.7 3.85-5.11-9.12 2.73-5.27z"/></g><use xlink:href="#H" class="j k l m"/><use xlink:href="#I" class="i"/><g clip-path="url(#D)" class="T h"><path class="r" d="M181.08 90a11 11 0 0 0 .66 4.26 34.56 34.56 0 0 0 3.09 6.88l-1.2 6.38c-.05.91 2.67.28 4-.07 2.55 5.7 7.22 9.65 8.67 10.11 2.53.79 6.53-3.37 8.64-6.59a6.11 6.11 0 0 0 1-2.67c-.11-.42-.19-.68-.19-.68s-1.2 4.59-3.57 4-6-5.34-8-7-1.19-3.79-1.59-6.23-6.39-4.59-6.79-6 1-7.18 1-7.18 2.27-3 1.78-1.78a8.48 8.48 0 0 0 .6 6.58 4.54 4.54 0 0 0 4.19 2.59l2.17-10.77-4.54-3.77-5.3 2.27c-4.04 4.76-5.39 6.06-4.62 9.67z"/></g><g class="j k l m"><use xlink:href="#I"/><path d="M185.9 98.47l.89 2.55s1.92.63 4.25-1.92m1.44 11.23s2.12-.22 3-3.19m-11.06-10.81s.63-1.91 4.45-1.91" class="v"/></g><path d="M204 70.33a63.63 63.63 0 0 0-8.38-.64c0 0-8.39-4.84-16.45.32S175 84.19 175 86.45s-2.59 2.26-1 5.16 7.06 1.3 7.06 1.3a7.79 7.79 0 0 1 2.94-5.65c2.9-2.26 5.22-2.75 6.18-2.1 0 0-.64 4.84.32 6.77 0 0 3.22 1.61 4.19 1.61s-.63 1.37 2.58 2.58a4 4 0 0 0 3.57-.42c.47-2 1.5-4.91 3.42-4.22 2.83 1 5.4 8 1.58 10.32 4.6.83 10.16-7.3 10.49-14.7S208.77 71.19 204 70.33z" class="n"/><path d="M190.31 82s2.37-1.28 5.27 1.45a16.78 16.78 0 0 0 16 4.36M190 79.82a5.75 5.75 0 0 1 4.33-2.49c2.72 0 9.09 3.82 14.17 3.82m-20.37 3.58s-3.09-3.81-6-.72-1.06 6-1.06 6m-5.29-2.68a9.46 9.46 0 0 0 3.08-6.18c.36-4 5.82-7.46 9.27-4.18m-6.72-4.23s5.45-5.28 10 1.45" stroke="#fff" stroke-width=".45" class="k p v"/><g class="j l m"><path d="M225.83 331.91s3.36 5.22 3 8.58l-.36 3.35s-12.32 3.38-14.93 3.38-16.42-1.31-16.42-1.31l-.59-2.37a.8.8 0 0 1 .43-.89l12.31-5.74 3.88-4.25z" class="i"/><path d="M215.39 344.59c3.34.26 9.68-1.78 13.36-3.08l-.26 2.33s-12.36 3.38-15 3.38-16.42-1.31-16.42-1.31l-.42-1.69c2.24.01 14.35.03 18.74.37z" class="h"/><path d="M209.31 336.91l-18 7.8s-1.53 3.84 0 4.6 35 0 35 0 2.3-6.06-1.34-10.13-15.66-2.27-15.66-2.27z" class="i"/><g class="h"><path d="M226.31 349.33s-33.39.77-34.93 0c-.74-.37-.76-1.45-.59-2.47h36.1a13 13 0 0 1-.58 2.47zm-25.5-147.95s-4.68 20.75-6.46 33.73-2.81 39-2.44 42 19 53 19 53l1.86 4.45 13.06-2.6s-6-19-8.2-29.47-7.13-27.6-7.13-30.59 11.58-59.95 12.41-63.69 4.59-9.48 4.59-9.48l-25-.51z"/><path d="M200.81 201.38s-2.74 19-1.61 32.13l3.56 45.41c0 4.17 6.74 29.12 7.12 37 .6 11.31-.24 16.91-.24 16.91l-.4 4.11s7.86 1.12 9.58 1.61a20.75 20.75 0 0 0 6.08.66c0 0 2.86-12.58 2.86-23.3s-2.38-32.79-3.56-41.73 2.55-43.42 4.67-49.86 6.75-20.07 3.63-27-31.69 4.06-31.69 4.06z"/></g></g><path d="M236 193.75l-.29 8.48-11.91 2.19c-5.65 1-19.82-.26-24.6-.72a1.65 1.65 0 0 1-1.5-1.78l.46-7.66z" class="n"/><path d="M216.11 109.25s-8 8.67-11 14-4.21 13.64-5.34 20.14 1.93 21.77 1.07 28.77l-2.77 22.12s-.59 1.49 1.38 3.13 11.57 2.24 20.25 2.67c3.17.16 12.64-1.87 14.19-2 1.87-.12 1.93-2.5 2-4.37.37-8.78 2-32.21 3-42.42 2.16-20.77-9.58-40.85-22.78-42.04z" class="i j l m"/><path d="M237.92 163.2l1-11.83q.12-1.34.18-2.67l-21.29 3.56-18.29-6.26a107.07 107.07 0 0 0 .64 11.32l18 5zm-22.61-53.07l-5.9 7 13.52 13.74 4.45-1.79z" class="h"/><path d="M216.11 109.25s-8 8.67-11 14a29.07 29.07 0 0 0-2.11 5.15l16.12-18.62a15.71 15.71 0 0 0-3.01-.53z" class="n"/><path d="M200.31 139.94l17.49 5.75 21.26-2.44a49.8 49.8 0 0 0-3.48-15.41l-17.15 6.87-15.3-6.94a82 82 0 0 0-2.82 12.17zM230.46 185a53.93 53.93 0 0 1-26.46-2.21l-4.27-1.46-1.34 10.67 4.86 1.36a73.14 73.14 0 0 0 28.43 2.19l3.93-.47a3.64 3.64 0 0 0 .34-1.38l.53-9.8zm2.4-14.58a54 54 0 0 1-26.48-2.18l-5.38-1.86a33.4 33.4 0 0 1-.08 5.83l-.63 5.13 5.41 1.52a73.15 73.15 0 0 0 28.43 2.2l2.67-.32.75-11.11z" class="h"/><path d="M149.311 132.766l.739-.92 17.216 13.842-.739.92z" class="n"/><use xlink:href="#J" class="i"/><g clip-path="url(#E)" class="T h"><path class="r" d="M208.43 151.63l.22 14.46-35.52-12.94-1.92-1.32-1.36-8.9-6.23-2.33-2.13-1.52-1.18 1.47 5.89 5.45-11-8.4-1.32 2.62 4.45 8.41 9 7.3 2.28 1.51 49.11 15.82z"/></g><g class="j l m"><use xlink:href="#J" class="k"/><path d="M208.68 166.09l13.57 9.79 3.52-6.23s2.43-1.91 2.78-3.36-.09-3.78.27-5.22 2.18-2.8 2.35-6.29v-6.4s2.94-12.09 2.62-17.34-5.34-14.54-9.48-14.71-9.34.41-13.43 6.6-3.26 24.28-3.87 25.42.25 6.72.25 6.72a3.26 3.26 0 0 0-1.25 2.25c-.07 1.45 1.5 5 1.5 5z" class="i"/></g><path d="M207.36 143.68a24.05 24.05 0 0 1-.34 4.64c-.57 1 .08 5.6.22 6.53a52.54 52.54 0 0 0 23.6 1.78 8.11 8.11 0 0 0 .31-1.89 68.52 68.52 0 0 0 0-6.41l.61-2.71a85.9 85.9 0 0 1-24.4-1.94zm2.95-19.79c-1.27 2.56-2 6.39-2.39 10.29a53.06 53.06 0 0 0 25.39 3.09 34.3 34.3 0 0 0 .45-6.24 17 17 0 0 0-1.16-4.81 87.54 87.54 0 0 1-22.29-2.33z" class="h"/><path d="M207.5 162.41l1.15 3.68 13.57 9.79 3.52-6.23s2.43-1.91 2.79-3.36a2.79 2.79 0 0 0 .11-.76 82.63 82.63 0 0 1-21.14-3.12z" class="n"/><path d="M217.31 338.4s.3-7.72 1.78-19-2.08-27.28-2.67-29.95.3-8.6-.3-10.69-3.48-11-1.78-21.28 3.08-37.57 3.08-37.57-4.28-3.48-5.54-8-.29-6-.29-6m7.72.47l-1.64 9.12" class="j k l m"/><use xlink:href="#K" class="h"/><use xlink:href="#K" class="Z i q"/><use xlink:href="#L" class="h"/><use xlink:href="#L" class="a" opacity=".2"/><path d="M43.38 311.58H15.07v5.86h2.47l5.11 31.97H35.8l5.11-31.97h2.47v-5.86z" class="h"/><path class="Z i q" d="M43.38 311.58H15.07v5.86h2.47l5.11 31.97H35.8l5.11-31.97h2.47v-5.86z"/><path class="b q" d="M115 46.99l-.84 4.17-1.2-.82 2.04-3.35z"/><path d="M85.77 29.4l23.47 22.23 2.64-3.94 2.65 1.86 1.21-7.45 3.5-4.52-33.47-8.18z" fill="#eee"/><path class="b q" d="M114.53 49.55l-.75-5.59L85.77 29.4l29.97 12.7-1.21 7.45z"/><path d="M86.19 29.57l1.07.52 3.89 2 12.77 6.6L114.05 44l.15.08-.08.14-3.42 5.46-1 1.45a3.17 3.17 0 0 1-.4.49 2.48 2.48 0 0 1 .32-.54l1-1.51 3.28-5.51.07.22-10.2-5.28L91 32.27l-3.82-2.07-1-.58a1.41 1.41 0 0 1-.35-.23 1.22 1.22 0 0 1 .36.18z" class="t"/><text class="e" transform="translate(298.52 186.78)" font-size="14" font-family="Poppins-Medium,Poppins" font-weight="500">16XXX</text><g opacity=".49"><path d="M280.22 230.19l23.47 22.23 2.64-3.94 2.65 1.86 1.21-7.45 3.5-4.52-33.47-8.18z" fill="#eee"/><path class="b q" d="M308.98 250.34l-.75-5.59-28.01-14.56 29.97 12.7-1.21 7.45z"/><path d="M280.64 230.36l1.07.52 3.89 2 12.77 6.6 10.13 5.31.15.08-.08.14-3.42 5.46-1 1.45a3.17 3.17 0 0 1-.4.49 2.48 2.48 0 0 1 .32-.54l1-1.51 3.28-5.51.07.22-10.2-5.3-12.76-6.71-3.83-2.06-1-.58a1.92 1.92 0 0 1-.35-.23 1.19 1.19 0 0 1 .36.17z" class="t"/></g><g opacity=".35"><path d="M324.05 110.25l4.48 5.79 1.55 9.55 3.4-2.39 3.38 5.05 30.06-28.47-42.87 10.47z" fill="#eee"/><path class="b q" d="M328.53 116.04l38.39-16.26-35.88 18.65-.96 7.16-1.55-9.55z"/><path d="M366.84 99.76a2.21 2.21 0 0 1-.45.3l-1.28.74-4.9 2.65-16.35 8.6-13.06 6.79.09-.29 4.2 7.06 1.28 1.94a3 3 0 0 1 .41.69 3.9 3.9 0 0 1-.51-.63l-1.28-1.86c-1.14-1.62-2.69-4-4.38-7l-.11-.18.2-.1 13-6.8 16.3-8.45 5-2.56 1.37-.67a1.58 1.58 0 0 1 .47-.23z" class="t"/></g></svg>