<svg xmlns="http://www.w3.org/2000/svg" xmlns:xlink="http://www.w3.org/1999/xlink" viewBox="0 0 500 500" xmlns:v="https://vecta.io/nano"><path d="M84.8 238.2l-72.1 10.3-6.3-47.9 72.1-10.2z" fill="#ebebeb"/><g fill="#fff"><path d="M78.5 190.4a368.77 368.77 0 0 1-7.7 9.8l-7.8 9.7-8.2 10c-.1.1-.2.2-.2.3l-7.3 8.7-.4.4-.5-.3-9.3-6.4c-.1-.1-.2-.1-.3-.2l-10.5-7.3-10-7.1-9.9-7.3 10.2 6.4 10.2 6.6c3.8 2.4 7.5 4.9 11.3 7.5l8.4 5.7 6.7-7.8 9-10.4 8.1-9.1 8.2-9.2z"/><path d="M38.3 222.1s0 .1 0 0l-1.1 1.3-4.9 5.4-6.3 6.3-6.5 6.1-6.8 5.8 6-6.7L25 234l6.5-6.1 5.4-4.6c.4-.4.9-.7 1.3-1 .1-.1.1-.2.1-.2zm46.1 14.6l-8.1-3.6-7.9-4-7.7-4.3-6.1-3.8-1.3-.9-.1-.1h.1l1.5.6 6.4 2.9 7.9 4 7.7 4.3 7.6 4.9z"/></g><path d="M476.5 144.8l-61.6-15.2 9.3-40.9 61.6 15.2z" fill="#ebebeb"/><g fill="#fff"><path d="M485.8 103.9c-3 1.9-6.1 3.6-9.2 5.5l-9.2 5.3-9.6 5.4c-.1.1-.2.1-.3.2l-8.6 4.7-.4.2-.3-.4-5.6-8.2c-.1-.1-.1-.2-.2-.3l-6.3-9.4-6-9-5.9-9.2c2.2 2.8 4.3 5.7 6.4 8.5l6.3 8.7 6.9 9.8 5.2 7.4 7.8-4.2 10.4-5.5 9.3-4.8 9.3-4.7z"/><path d="M443.7 116.6c-.1 0-.1 0 0 0l-1.3.7-5.6 2.8-7 3.1-7.1 2.8-7.3 2.4 6.9-3.4 7-3.1 7.1-2.8 5.8-2c.5-.1.9-.3 1.4-.4 0-.1 0-.1.1-.1zm33 26.9l-5.5-5.6-5.2-5.8-5-6.1-3.8-5.1-.8-1.1s0-.1-.1-.1l.1.1c.4.3.7.7 1 1 1.5 1.4 2.9 3 4.3 4.5l5.2 5.8 5 6.1a74.65 74.65 0 0 1 4.8 6.3z"/></g><path d="M224.4 47.5h66.2v44h-66.2z" fill="#ebebeb"/><g fill="#fff"><path d="M290.6 47.5l-8.1 7.9-8.2 7.7-8.6 7.9c-.1.1-.2.2-.3.2l-7.6 6.9-.4.3-.4-.3-7.6-6.9c-.1-.1-.2-.2-.3-.2l-8.6-7.9-8.2-7.7-8.1-7.9 8.4 7 8.4 7.2 9.3 8.2 6.9 6.2 6.9-6.2 9.3-8.2 8.4-7.2c3.2-2.3 6-4.7 8.8-7z"/><path d="M250.6 71l-1.1 1-5.1 4.2-6.4 4.9-6.6 4.6-6.8 4.3 6.2-5.2 6.4-4.9 6.6-4.6 5.4-3.5c.4-.3.9-.5 1.3-.8h.1zm39.8 19.1l-6.8-4.3-6.6-4.6-6.4-4.9-5.1-4.2c-.4-.3-.7-.6-1-.9 0 0 0-.1-.1-.1 0 0 .1 0 .1.1.4.3.9.5 1.3.8l5.4 3.5 6.6 4.6 6.4 4.9c2.1 1.5 4.2 3.2 6.2 5.1z"/></g><path d="M38.8 362.1C35 368 32.4 374.4 31 381l-10.5 1v20.4l10.5 1c1.4 6.6 4 13 7.8 18.9l-6.7 8.1 14.4 14.4 8.1-6.7c5.8 3.8 12.3 6.4 18.9 7.8l1 10.5H95l1-10.5c6.6-1.4 13-4 18.9-7.8l8.1 6.7 14.4-14.4-6.7-8.1c3.8-5.8 6.4-12.3 7.8-18.9l10.5-1V382l-10.5-1c-1.4-6.6-4-13-7.8-18.9l6.7-8.1-14.4-14.4-8.1 6.7c-5.8-3.8-12.3-6.4-18.9-7.8L95 328H74.5l-1 10.5c-6.6 1.4-13 4-18.9 7.8l-8.1-6.7L32.1 354l6.7 8.1zm69.4 6.7a33.26 33.26 0 0 1 0 46.9c-12.9 13-33.9 13-46.9 0s-13-33.9 0-46.9 33.9-13 46.9 0zm-53.5 27.6c-.2 0-.4-.2-.4-.4-.9-9 1.7-17.7 7.4-24.4.2-.2.4-.2.6 0s.2.4 0 .6c-5.5 6.5-8.1 14.9-7.2 23.7 0 .3-.2.5-.4.5zm1.4 6.8c-.2 0-.4-.1-.4-.3l-.9-3.7c0-.2.1-.5.3-.5s.5.1.5.4c.2 1.2.5 2.4.8 3.6.1.2-.1.5-.3.5h0z" fill="#3fb1cf"/><g fill="#ebebeb"><path d="M146.6 398.2c-1.3 2-2.2 4.3-2.7 6.6l-3.7.4v7.1l3.7.4c.5 2.3 1.4 4.5 2.7 6.6l-2.4 2.8 5 5 2.8-2.4c2 1.3 4.3 2.2 6.6 2.7l.4 3.7h7.1l.4-3.7c2.3-.5 4.6-1.4 6.6-2.7l2.8 2.4 5-5-2.4-2.8c1.3-2 2.2-4.3 2.7-6.6l3.7-.4v-7.1l-3.7-.4c-.5-2.3-1.4-4.5-2.7-6.6l2.4-2.8-5-5-2.8 2.4c-2-1.3-4.3-2.2-6.6-2.7l-.4-3.7H159l-.4 3.7c-2.3.5-4.6 1.4-6.6 2.7l-2.8-2.4-5 5 2.4 2.8zm24.2 2.3c4.5 4.5 4.5 11.8 0 16.4-4.5 4.5-11.8 4.5-16.4 0-4.5-4.5-4.5-11.8 0-16.4 4.6-4.5 11.9-4.5 16.4 0z"/><path d="M152.2 397.2c-.1 0-.1-.1-.1-.1-.3-3.2.6-6.2 2.6-8.5.1-.1.1-.1.2 0 .1 0 .1.1 0 .2-1.9 2.3-2.8 5.2-2.5 8.3-.1 0-.1.1-.2.1zm.5 2.4c-.1 0-.1 0-.1-.1l-.3-1.3c0-.1 0-.2.1-.2s.2 0 .2.1l.3 1.2c-.1.2-.1.2-.2.3z"/><path d="M453 413.4H115.2c-8.1 0-14.7-6.6-14.7-14.7V171.3c0-8.1 6.6-14.7 14.7-14.7H453c8.1 0 14.7 6.6 14.7 14.7v227.4c0 8.1-6.6 14.7-14.7 14.7z"/></g><path d="M467.7 202.1H100.4v-34.3c0-8.1 6.6-14.7 14.7-14.7H453c8.1 0 14.7 6.6 14.7 14.7v34.3h0z" fill="#254070"/><circle cx="394.6" cy="177.5" r="6.6" fill="#3fb1cf"/><linearGradient id="A" gradientUnits="userSpaceOnUse" x1="406.96" y1="177.53" x2="420.2" y2="177.53"><stop offset="0" stop-color="#f17972"/><stop offset="1" stop-color="#f69b61"/></linearGradient><circle cx="413.6" cy="177.5" r="6.6" fill="url(#A)"/><circle cx="431.6" cy="177.5" r="6.6" fill="#f96e10"/><linearGradient id="B" gradientUnits="userSpaceOnUse" x1="245.32" y1="106.1" x2="352.62" y2="106.1"><stop offset="0" stop-color="#f17972"/><stop offset="1" stop-color="#f69b61"/></linearGradient><path d="M258.5 64.4h80.8a13.19 13.19 0 0 1 13.2 13.2v43.6a13.19 13.19 0 0 1-13.2 13.2H320l-.1 13.2-14.6-13.2h-46.8a13.19 13.19 0 0 1-13.2-13.2V77.7c0-7.3 5.9-13.3 13.2-13.3z" fill="url(#B)"/><path d="M319.3 83.2h-60.6c-.5 0-.8-.9-.8-2s.4-2 .8-2h60.6c.5 0 .8.9.8 2s-.4 2-.8 2zm16.7.1h-9.6c-.5 0-.8-.9-.8-2s.4-2 .8-2h9.6c.5 0 .8.9.8 2s-.4 2-.8 2zm-60.6 15.4H336c.5 0 .8-.9.8-2s-.4-2-.8-2h-60.6c-.5 0-.8.9-.8 2s.4 2 .8 2zm-16.7 16h60.6c.5 0 .8-.9.8-2s-.4-2-.8-2h-60.6c-.5 0-.8.9-.8 2s.3 2 .8 2zm0-15.9h9.6c.5 0 .8-.9.8-2s-.4-2-.8-2h-9.6c-.5 0-.8.9-.8 2s.3 2 .8 2z" fill="#fff"/><path d="M403.1 21.8h57c5.1 0 9.3 4.2 9.3 9.3v30.8c0 5.2-4.2 9.3-9.3 9.3h-13.6l-.1 9.3-10.3-9.3h-33c-5.1 0-9.3-4.2-9.3-9.3V31.1c0-5.1 4.2-9.3 9.3-9.3z" fill="#3fb1cf"/><path d="M445.9 35h-42.7c-.3 0-.6-.6-.6-1.4s.2-1.4.6-1.4h42.7c.3 0 .6.6.6 1.4s-.3 1.4-.6 1.4zm11.8.1H451c-.3 0-.6-.6-.6-1.4s.2-1.4.6-1.4h6.7c.3 0 .6.6.6 1.4s-.3 1.4-.6 1.4zM415 45.9h42.7c.3 0 .6-.6.6-1.4s-.2-1.4-.6-1.4H415c-.3 0-.6.6-.6 1.4s.3 1.4.6 1.4zm-11.8 11.3h42.7c.3 0 .6-.6.6-1.4s-.2-1.4-.6-1.4h-42.7c-.3 0-.6.6-.6 1.4s.3 1.4.6 1.4zm0-11.2h6.7c.3 0 .6-.6.6-1.4s-.2-1.4-.6-1.4h-6.7c-.3 0-.6.6-.6 1.4s.3 1.4.6 1.4zM173 225.2h-54c-1.1 0-1.9-.9-1.9-1.9v-6.6c0-1.1.9-1.9 1.9-1.9h54c1.1 0 1.9.9 1.9 1.9v6.6c0 1.1-.8 1.9-1.9 1.9z" fill="#fff"/><path d="M231.9 225.2h-31.2c-1.1 0-1.9-.9-1.9-1.9v-6.6c0-1.1.9-1.9 1.9-1.9h31.2c1.1 0 1.9.9 1.9 1.9v6.6c0 1.1-.9 1.9-1.9 1.9zM225 330.5h-31.2c-1.1 0-1.9-.9-1.9-1.9V322c0-1.1.9-1.9 1.9-1.9H225c1.1 0 1.9.9 1.9 1.9v6.6c0 1.1-.9 1.9-1.9 1.9z" fill="#d0d3d6"/><g fill="#fff"><path d="M449.5 359H203.1c-1.1 0-1.9-.9-1.9-1.9v-6.6c0-1.1.9-1.9 1.9-1.9h246.4c1.1 0 1.9.9 1.9 1.9v6.6a1.97 1.97 0 0 1-1.9 1.9z"/><use xlink:href="#F"/><use xlink:href="#F" y="18.8"/><path d="M172.8 249h-53.6c-1.2 0-2.1-.9-2.1-2.1v-6.2c0-1.2.9-2.1 2.1-2.1h53.6c1.2 0 2.1.9 2.1 2.1v6.2c0 1.1-.9 2.1-2.1 2.1zm-.2 23.7h-53.2a2.26 2.26 0 0 1-2.3-2.3v-5.8a2.26 2.26 0 0 1 2.3-2.3h53.2a2.26 2.26 0 0 1 2.3 2.3v5.8c0 1.2-1 2.3-2.3 2.3zm.1 23.7h-53.4a2.22 2.22 0 0 1-2.2-2.2v-5.9a2.22 2.22 0 0 1 2.2-2.2h53.4a2.22 2.22 0 0 1 2.2 2.2v5.9a2.22 2.22 0 0 1-2.2 2.2zm-.6 23.7h-52.2c-1.6 0-2.8-1.3-2.8-2.8v-4.8c0-1.5 1.3-2.8 2.8-2.8h52.2c1.6 0 2.8 1.3 2.8 2.8v4.8a2.73 2.73 0 0 1-2.8 2.8z"/></g><path d="M407.7 272.7h-57.9a2.22 2.22 0 0 1-2.2-2.2v-5.9a2.22 2.22 0 0 1 2.2-2.2h57.9a2.22 2.22 0 0 1 2.2 2.2v5.9a2.22 2.22 0 0 1-2.2 2.2zm41.4-48.1h-57.9a2.22 2.22 0 0 1-2.2-2.2v-5.9a2.22 2.22 0 0 1 2.2-2.2h57.9a2.22 2.22 0 0 1 2.2 2.2v5.9c.1 1.2-.9 2.2-2.2 2.2zm-42 71.8h-56.7c-1.5 0-2.8-1.3-2.8-2.8v-4.8c0-1.5 1.3-2.8 2.8-2.8h56.7c1.5 0 2.8 1.3 2.8 2.8v4.8c0 1.5-1.2 2.8-2.8 2.8z" fill="#d0d3d6"/><path d="M173 343.9h-54c-1.1 0-1.9-.9-1.9-1.9v-6.5c0-1.1.9-1.9 1.9-1.9h54c1.1 0 1.9.9 1.9 1.9v6.5c0 1-.8 1.9-1.9 1.9z" fill="#fff"/><path d="M170.6 397.4h-54c-1.1 0-1.9-.9-1.9-1.9V389c0-1.1.9-1.9 1.9-1.9h54c1.1 0 1.9.9 1.9 1.9v6.5a1.97 1.97 0 0 1-1.9 1.9z" fill="#d0d3d6"/><g fill="none" stroke="#bac0c6" stroke-width="7"><circle cx="218.7" cy="274" r="26.6"/><circle cx="291.1" cy="274" r="26.6"/></g><path d="M85.9 206.2l12.9-6.5-18.6-37.2-16.3 8.2z" fill="#ffc727"/><path d="M63.9 170.7l8.4 13.5 13.7 22 12.8-6.5-18.6-37.2z" fill="#59709b"/><path d="M63.9 170.7l8.4 13.5 15-7.5-7.1-14.2z" fill="#284477"/><path d="M57.46 161.573l20.204-10.127 7.707 15.377-20.204 10.127z" fill="#253e66"/><path d="M41.1 162.7l16.5-6.3-12.5-24.8-14.9 9.4z" fill="#59709b"/><linearGradient id="C" gradientUnits="userSpaceOnUse" x1="50.73" y1="106.105" x2="169.67" y2="106.105"><stop offset="0" stop-color="#f17972"/><stop offset="1" stop-color="#f69b61"/></linearGradient><path d="M50.7 122.6l18.4 36.7 28-10.1 72.6-8.1-44.2-88.2-50 53.3z" fill="url(#C)"/><path d="M134.8 103.4c12.3 24.5 28.6 41.1 36.4 37.1 7.9-3.9 4.3-27-8-51.4C151 64.7 134.7 48 126.8 52c-7.8 3.9-4.3 26.9 8 51.4z" fill="#f69c5e"/><path d="M137.7 101c10.9 21.7 24.9 36.7 31.4 33.5 6.4-3.2 2.8-23.4-8.1-45.2s-24.9-36.7-31.4-33.5c-6.4 3.3-2.8 23.5 8.1 45.2z" fill="#334e85"/><linearGradient id="D" gradientUnits="userSpaceOnUse" x1="135.23" y1="96.637" x2="156.073" y2="96.637"><stop offset="0" stop-color="#f17972"/><stop offset="1" stop-color="#f69b61"/></linearGradient><path d="M139.6 100l4.5 8.3c2.1.5 4.4.2 6.5-.8 4.9-2.4 6.8-8.3 4.4-13.2l-2.1-4.2c-2.4-4.9-8.4-6.8-13.2-4.4-2.1 1-3.6 2.7-4.5 4.7 1.3 3.2 2.8 6.4 4.4 9.6z" fill="url(#D)"/><g fill="#334e85"><path d="M55.9 168.4l31.9-12.2-24.1-48-28.8 18.2z"/><path d="M55.9 168.4l31.9-12.2-24.1-48-28.8 18.2z"/></g><path d="M124.4 61c-.9 3.6-.7 7.4-.3 11.1.5 3.7 1.3 7.3 2.3 10.9.5 1.8 1.1 3.5 1.7 5.3.7 1.7 1.3 3.5 2 5.2.8 1.7 1.4 3.4 2.2 5.1l2.4 5c3.4 6.6 7.1 13.1 11.7 18.9 2.3 2.9 4.7 5.8 7.5 8.2s5.9 4.7 9.4 5.8c-3.5-1.3-6.4-3.6-9.1-6.2-2.7-2.5-5-5.4-7.2-8.3-4.4-5.9-8.1-12.3-11.4-18.9s-6.3-13.3-8.5-20.4c-1.2-3.5-2-7.1-2.6-10.7-.4-3.6-.8-7.3-.1-11z" fill="#fff"/><path d="M155.9 42.8l-4.2 6.5-3.9 6.6-3.7 6.7-1.8 3.4-1.7 3.5 2.1-3.2 2.1-3.3 3.9-6.6 3.7-6.7c1.3-2.2 2.5-4.5 3.5-6.9zm7.8 76l8.7-.6 8.6-.9 8.6-1.2 4.3-.7 4.3-.8-4.3.2-4.3.3-8.6.9-8.6 1.2-8.7 1.6zm48.1-24.9c-4.2.9-8.3 1.9-12.4 2.9s-8.2 2.1-12.3 3.2-8.2 2.3-12.3 3.5l-6.1 1.8c-2 .7-4.1 1.3-6.1 2 2.1-.4 4.1-.9 6.2-1.4l6.2-1.5c4.1-1 8.2-2.1 12.3-3.2s8.2-2.3 12.3-3.5 8.2-2.4 12.2-3.8zm-32.9-57.1c-2.8 3.3-5.5 6.6-8.2 10-2.7 3.3-5.3 6.8-8 10.2l-7.8 10.3-3.8 5.2c-1.2 1.8-2.5 3.5-3.7 5.3 1.4-1.6 2.8-3.3 4.2-5l4.1-5 8-10.2 7.8-10.3 7.4-10.5zm-22.6 55.4l13.5-6.4 13.3-6.7 13.2-6.9 6.6-3.6 6.5-3.7-6.8 3.2-6.7 3.3-13.3 6.7-13.2 6.9c-4.4 2.3-8.8 4.7-13.1 7.2z" fill="#334e85"/><defs ><path id="F" d="M449.5 377.8H203.1c-1.1 0-1.9-.9-1.9-1.9v-6.6c0-1.1.9-1.9 1.9-1.9h246.4c1.1 0 1.9.9 1.9 1.9v6.6c0 1.1-.9 1.9-1.9 1.9z"/></defs></svg>